# Blender v2.60 (sub 0) OBJ File: '16-gon-tube-16-patch.blend'
# www.blender.org
v -2.411684 0.195090 -0.980785
v -2.411684 -0.555570 -0.831470
v -2.411684 -0.831470 0.555570
v -2.411684 -0.195091 0.980785
v -2.411684 0.555570 -0.831470
v -2.756210 0.000000 -1.000000
v -2.756210 -0.382683 -0.923880
v -2.756210 -0.707107 -0.707107
v -2.756210 -0.923880 -0.382683
v -2.756210 -1.000000 0.000000
v -2.756210 -0.923880 0.382684
v -2.756210 -0.707107 0.707107
v -2.756210 -0.382683 0.923880
v -2.756210 -0.000000 1.000000
v -2.756210 0.382683 0.923880
v -2.756210 0.707107 0.707107
v -2.756210 0.923880 0.382684
v -2.756210 1.000000 -0.000000
v -2.756210 0.923879 -0.382684
v -2.756210 0.707107 -0.707107
v -2.756210 0.382683 -0.923880
v -2.411684 0.831469 -0.555570
v -2.411684 0.980785 -0.195090
v -2.411684 0.980785 0.195090
v -2.411684 0.831469 0.555570
v -2.411684 0.555570 0.831470
v -2.411684 0.195090 0.980785
v -2.411684 -0.555570 0.831470
v -2.411684 -0.980785 0.195090
v -2.411684 -0.980785 -0.195090
v -2.411684 -0.831470 -0.555570
v -2.411684 -0.195090 -0.980785
v -2.067158 -0.707107 -0.707107
v -2.067158 -0.382683 -0.923880
v -2.067158 0.382684 -0.923879
v -1.378106 0.382684 -0.923880
v -1.378106 0.000000 -1.000000
v -1.378106 -0.382683 -0.923880
v -1.378106 -0.707106 -0.707107
v -1.378106 -0.923879 -0.382684
v -1.378106 0.382683 0.923880
v -1.378106 0.923880 -0.382684
v -1.378106 0.707107 -0.707107
v -1.722632 -0.195090 -0.980785
v -1.722632 -0.831469 -0.555570
v -1.722632 -0.980785 -0.195090
v -1.722632 -0.980785 0.195090
v -1.722632 -0.555570 0.831469
v -1.722632 0.195090 0.980785
v -1.722632 0.555570 0.831470
v -1.722632 0.831470 0.555570
v -1.722632 0.980785 0.195090
v -1.722632 0.980785 -0.195090
v -1.722632 0.831470 -0.555570
v -2.067158 0.707107 -0.707107
v -2.067158 0.923880 -0.382684
v -2.067158 1.000000 -0.000000
v -2.067158 0.923880 0.382684
v -2.067158 0.707107 0.707107
v -2.067158 0.382683 0.923880
v -2.067158 0.000000 1.000000
v -2.067158 -0.382683 0.923880
v -2.067158 -0.707107 0.707107
v -2.067158 -0.923879 0.382683
v -2.067158 -1.000000 -0.000000
v -2.067158 -0.923879 -0.382683
v -2.067158 0.000000 -1.000000
v -1.722632 0.555570 -0.831470
v -1.722632 -0.195090 0.980785
v -1.722632 -0.831469 0.555570
v -1.722632 -0.555570 -0.831470
v -1.722632 0.195091 -0.980785
v -0.344528 0.195091 -0.980785
v -0.344528 -0.555570 -0.831470
v -0.344528 -0.831469 0.555570
v -0.344528 -0.195090 0.980785
v -0.344528 0.555570 -0.831470
v -0.689054 0.000000 -1.000000
v -0.689054 -0.923879 -0.382684
v -0.689054 -1.000000 -0.000000
v -0.689054 -0.923879 0.382683
v -0.689054 -0.707106 0.707107
v -0.689054 -0.382683 0.923879
v -0.689054 0.000000 1.000000
v -0.689054 0.382684 0.923879
v -0.689054 0.707107 0.707107
v -0.689054 1.923880 0.382683
v -0.689054 2.000000 -0.000000
v -0.689054 0.923880 -0.382684
v -0.689054 0.707107 -0.707107
v -0.344528 0.831470 -0.555571
v -0.344528 1.980786 -0.195091
v -0.344528 1.980786 0.195090
v -0.344528 1.831470 0.555570
v -0.344528 0.555570 0.831470
v -0.344528 0.195090 0.980785
v -0.344528 -0.555570 0.831469
v -0.344528 -0.980785 0.195090
v -0.344528 -0.980785 -0.195091
v -0.344528 -0.831469 -0.555570
v -0.344528 -0.195090 -0.980785
v -0.000002 2.000000 -0.000000
v -0.000002 1.923880 0.382683
v -0.000002 0.382684 0.923880
v -0.000002 -0.999999 -0.000000
v -0.000002 -0.923879 -0.382684
v -0.000002 -0.707106 -0.707107
v -0.000002 -0.382683 -0.923880
v -0.000002 0.000001 -1.000000
v -0.000002 0.382684 -0.923880
v -0.689054 0.382684 -0.923880
v -0.689054 -0.382683 -0.923880
v -0.689054 -0.707106 -0.707107
v -1.033580 -0.195090 -0.980785
v -1.033580 -0.831469 -0.555570
v -1.033580 -0.980785 -0.195091
v -1.033580 -0.980785 0.195090
v -1.033580 -0.555570 0.831469
v -1.033580 0.195090 0.980785
v -1.033580 0.555570 0.831470
v -1.033580 0.831470 0.555570
v -1.033580 1.980785 0.195090
v -1.033580 0.980786 -0.195091
v -1.033580 0.831470 -0.555571
v -1.378106 1.000000 -0.000000
v -1.378106 0.923880 0.382683
v -1.378106 0.707107 0.707107
v -1.378106 0.000000 1.000000
v -1.378106 -0.382683 0.923879
v -1.378106 -0.707107 0.707107
v -1.378106 -0.923879 0.382683
v -1.378106 -1.000000 -0.000000
v -1.033580 0.555570 -0.831470
v -1.033580 -0.195090 0.980785
v -1.033580 -0.831469 0.555570
v -1.033580 -0.555570 -0.831470
v -1.033580 0.195091 -0.980785
v 1.722628 0.195091 -0.980786
v 1.722628 -0.555569 -0.831470
v 1.722628 -0.831469 0.555570
v 1.722628 -0.195090 0.980785
v 1.722628 0.555571 -0.831470
v 1.378102 -0.999999 -0.000000
v 1.378102 -0.923879 0.382683
v 1.378102 -0.707106 0.707106
v 1.378102 -0.382683 0.923879
v 1.378102 0.000001 1.000000
v 1.378102 0.707107 0.707107
v 1.378101 0.923880 0.382683
v 1.378101 1.000001 -0.000000
v 1.722628 0.831470 -0.555571
v 1.722628 0.980786 -0.195091
v 1.722628 0.980786 0.195090
v 1.722628 0.831470 0.555570
v 1.722628 0.555571 0.831469
v 1.722628 0.195091 0.980785
v 1.722628 -0.555570 0.831469
v 1.722628 -0.980784 0.195090
v 1.722628 -0.980784 -0.195091
v 1.722628 -0.831469 -0.555571
v 1.722628 -0.195089 -0.980786
v 2.067153 -0.707106 -0.707107
v 2.067153 -0.382682 -0.923880
v 2.067153 0.382684 -0.923880
v 2.756206 0.382685 -0.923880
v 2.756206 0.000001 -1.000000
v 2.756206 -0.382682 -0.923880
v 2.756206 -0.707106 -0.707107
v 2.756206 -0.923878 -0.382684
v 2.756206 -0.999999 -0.000001
v 2.756206 -0.923879 0.382683
v 2.756206 -0.707106 0.707106
v 2.756206 -0.382683 0.923879
v 2.756206 0.000001 0.999999
v 2.756206 0.382684 0.923879
v 2.756206 0.707108 0.707107
v 2.756206 0.923880 0.382683
v 2.756206 1.000001 -0.000001
v 2.756206 0.923880 -0.382684
v 2.756206 0.707108 -0.707107
v 2.411680 -0.195089 -0.980786
v 2.411680 -0.831469 -0.555571
v 2.411680 -0.980784 -0.195091
v 2.411680 -0.980784 0.195090
v 2.411680 -0.555569 0.831469
v 2.411680 0.195091 0.980785
v 2.411680 0.555571 0.831469
v 2.411680 0.831470 0.555570
v 2.411680 0.980786 0.195090
v 2.411680 0.980786 -0.195091
v 2.411680 0.831470 -0.555571
v 2.067153 0.707108 -0.707107
v 2.067153 0.923880 -0.382684
v 2.067153 1.000001 -0.000001
v 2.067153 0.923881 0.382683
v 2.067153 0.707108 0.707107
v 2.067153 0.382684 0.923879
v 2.067153 0.000001 0.999999
v 2.067153 -0.382682 0.923879
v 2.067153 -0.707106 0.707106
v 2.067153 -0.923878 0.382683
v 2.067153 -0.999999 -0.000000
v 2.067153 -0.923878 -0.382684
v 2.067153 0.000001 -1.000000
v 2.411680 0.555571 -0.831470
v 2.411680 -0.195089 0.980785
v 2.411680 -0.831469 0.555570
v 2.411680 -0.555569 -0.831470
v 2.411680 0.195091 -0.980786
v 1.033576 0.195091 -0.980786
v 1.033576 -0.555569 -0.831470
v 1.033576 -0.831469 0.555570
v 1.033576 -0.195090 0.980785
v 1.033576 0.555571 -0.831470
v 0.689050 0.000001 -1.000000
v 0.689050 -0.923879 -0.382684
v 0.689050 -0.999999 -0.000000
v 0.689050 -0.923879 0.382683
v 0.689050 -0.707106 0.707106
v 0.689050 -0.382683 0.923879
v 0.689050 0.000001 1.000000
v 0.689050 0.382684 0.923879
v 0.689050 0.707107 0.707107
v 0.689050 1.923880 0.382683
v 0.689050 2.000001 -0.000000
v 0.689050 0.923880 -0.382684
v 0.689050 0.707107 -0.707107
v 1.033576 0.831470 -0.555571
v 1.033576 0.980786 -0.195091
v 1.033576 1.980786 0.195090
v 1.033576 0.831470 0.555570
v 1.033576 0.555571 0.831469
v 1.033576 0.195091 0.980785
v 1.033576 -0.555570 0.831469
v 1.033576 -0.980785 0.195090
v 1.033576 -0.980785 -0.195091
v 1.033576 -0.831469 -0.555571
v 1.033576 -0.195090 -0.980786
v 1.378102 0.707107 -0.707107
v 1.378101 0.923880 -0.382684
v 1.378102 0.382684 0.923879
v 1.378102 -0.923879 -0.382684
v 1.378102 -0.707106 -0.707107
v 1.378102 -0.382682 -0.923880
v 1.378102 0.000001 -1.000000
v 1.378102 0.382684 -0.923880
v 0.689050 0.382684 -0.923880
v 0.689050 -0.382683 -0.923880
v 0.689050 -0.707106 -0.707107
v 0.344524 -0.195090 -0.980786
v 0.344524 -0.831469 -0.555571
v 0.344524 -0.980785 -0.195091
v 0.344524 -0.980785 0.195090
v 0.344524 -0.555570 0.831469
v 0.344524 0.195091 0.980785
v 0.344524 0.555570 0.831470
v 0.344524 1.831470 0.555570
v 0.344524 1.980786 0.195090
v 0.344524 1.980786 -0.195091
v 0.344524 0.831470 -0.555571
v -0.000002 0.707107 -0.707107
v -0.000002 1.923880 -0.382684
v -0.000002 1.707107 0.707107
v -0.000002 0.000000 1.000000
v -0.000002 -0.382683 0.923879
v -0.000002 -0.707106 0.707106
v -0.000002 -0.923879 0.382683
v 0.344524 0.555570 -0.831470
v 0.344524 -0.195090 0.980785
v 0.344524 -0.831469 0.555570
v 0.344524 -0.555570 -0.831470
v 0.344524 0.195091 -0.980786
vn 0.000000 -0.195074 0.980773
vn 0.000000 0.195074 0.980773
vn -0.019471 0.000000 0.999786
vn -0.019471 0.382611 0.923704
vn 0.000000 0.555559 0.831446
vn -0.019471 0.706961 0.706961
vn 0.000000 0.831446 0.555559
vn -0.019471 0.923704 0.382611
vn 0.000000 0.980773 0.195074
vn -0.019471 0.999786 0.000000
vn 0.000000 0.980773 -0.195074
vn -0.019471 0.923704 -0.382611
vn 0.000000 0.831446 -0.555559
vn -0.019471 0.706961 -0.706961
vn 0.000000 0.555559 -0.831446
vn -0.019471 0.382580 -0.923704
vn 0.000000 0.195074 -0.980773
vn -0.019471 0.000000 -0.999786
vn 0.000000 -0.195074 -0.980773
vn -0.019471 -0.382611 -0.923704
vn 0.000000 -0.555559 -0.831446
vn -0.019471 -0.706961 -0.706961
vn 0.000000 -0.831446 -0.555559
vn -0.019471 -0.923704 -0.382611
vn 0.000000 -0.980773 -0.195074
vn -0.019471 -0.999786 0.000000
vn 0.000000 -0.980773 0.195074
vn -0.019471 -0.923704 0.382611
vn 0.000000 -0.831446 0.555559
vn -0.019471 -0.706961 0.706961
vn 0.000000 -0.555559 0.831446
vn -0.019471 -0.382611 0.923704
vn 0.000000 -0.382672 0.923856
vn 0.000000 -0.707083 0.707083
vn 0.000000 -0.923856 0.382672
vn 0.000000 -1.000000 0.000000
vn 0.000000 -0.923856 -0.382672
vn 0.000000 -0.707083 -0.707083
vn 0.000000 -0.382672 -0.923856
vn 0.000000 0.000000 -1.000000
vn 0.000000 0.382672 -0.923856
vn 0.000000 0.707083 -0.707083
vn 0.000000 0.923856 -0.382672
vn 0.000000 0.999969 0.000000
vn 0.000000 0.923856 0.382672
vn 0.000000 0.707083 0.707083
vn 0.000000 0.382672 0.923856
vn 0.000000 0.000000 1.000000
vn -0.296030 0.777337 0.555010
vn -0.375286 0.898587 -0.227241
vn -0.122074 0.313334 0.941740
vn -0.159612 0.425947 0.890530
vn -0.185064 0.629444 0.754662
vn -0.219031 0.717368 0.661336
vn -0.284738 0.848354 -0.446242
vn -0.252083 0.790918 -0.557573
vn -0.229255 0.623341 -0.747551
vn -0.195410 0.529984 -0.825159
vn 0.000000 0.000000 -0.999969
vn 0.000000 0.513657 -0.857967
vn 0.000000 0.644124 -0.764885
vn 0.000000 1.000000 0.000000
vn 0.000000 0.462905 0.886380
vn 0.000000 0.246193 0.969207
vn -0.195410 0.529984 0.825159
vn -0.644185 0.763024 0.052767
vn -0.261147 0.704184 -0.660207
vn 0.296030 0.777337 0.555010
vn 0.375286 0.898587 -0.227241
vn 0.019471 -0.382611 0.923704
vn 0.019471 0.000000 0.999786
vn 0.019471 0.382580 0.923704
vn 0.019471 0.706961 0.706961
vn 0.019471 0.923704 0.382611
vn 0.019471 0.999786 0.000000
vn 0.019471 0.923704 -0.382611
vn 0.019471 0.706961 -0.706961
vn 0.019471 0.382611 -0.923704
vn 0.019471 0.000000 -0.999786
vn 0.019471 -0.382611 -0.923704
vn 0.019471 -0.706961 -0.706961
vn 0.019471 -0.923704 -0.382611
vn 0.019471 -0.999786 0.000000
vn 0.019471 -0.923704 0.382611
vn 0.019471 -0.706961 0.706961
vn 0.000000 0.000000 0.999969
vn 0.159612 0.425947 0.890530
vn 0.195410 0.529984 0.825159
vn 0.219031 0.717368 0.661336
vn 0.644185 0.763024 0.052767
vn 0.284738 0.848354 -0.446242
vn 0.261147 0.704184 -0.660207
vn 0.229255 0.623341 -0.747551
vn 0.122074 0.313334 0.941740
vn 0.185064 0.629444 0.754662
vn 0.252083 0.790918 -0.557573
vn 0.195410 0.529984 -0.825159
usemtl 
s 1
f 4//1 27//2 14//3
f 27//2 15//4 14//3
f 27//2 26//5 15//4
f 26//5 16//6 15//4
f 26//5 25//7 16//6
f 25//7 17//8 16//6
f 25//7 24//9 17//8
f 24//9 18//10 17//8
f 24//9 23//11 18//10
f 23//11 19//12 18//10
f 23//11 22//13 19//12
f 22//13 20//14 19//12
f 22//13 5//15 20//14
f 5//15 21//16 20//14
f 1//17 21//16 5//15
f 1//17 6//18 21//16
f 1//17 32//19 6//18
f 32//19 7//20 6//18
f 32//19 2//21 7//20
f 2//21 8//22 7//20
f 2//21 31//23 8//22
f 31//23 9//24 8//22
f 31//23 30//25 9//24
f 30//25 10//26 9//24
f 30//25 29//27 10//26
f 29//27 11//28 10//26
f 29//27 3//29 11//28
f 3//29 12//30 11//28
f 3//29 28//31 12//30
f 28//31 13//32 12//30
f 28//31 4//1 13//32
f 4//1 14//3 13//32
f 62//33 4//1 28//31
f 63//34 62//33 28//31
f 63//34 28//31 3//29
f 64//35 63//34 3//29
f 64//35 3//29 29//27
f 65//36 64//35 29//27
f 65//36 29//27 30//25
f 66//37 65//36 30//25
f 66//37 30//25 31//23
f 33//38 66//37 31//23
f 33//38 31//23 2//21
f 34//39 33//38 2//21
f 34//39 2//21 32//19
f 67//40 34//39 32//19
f 32//19 1//17 67//40
f 67//40 1//17 35//41
f 35//41 1//17 5//15
f 35//41 5//15 55//42
f 55//42 5//15 22//13
f 56//43 55//42 22//13
f 56//43 22//13 23//11
f 57//44 56//43 23//11
f 57//44 23//11 24//9
f 58//45 57//44 24//9
f 58//45 24//9 25//7
f 59//46 58//45 25//7
f 59//46 25//7 26//5
f 60//47 59//46 26//5
f 60//47 26//5 27//2
f 61//48 60//47 27//2
f 61//48 27//2 4//1
f 62//33 61//48 4//1
f 129//33 128//48 69//1
f 128//48 49//2 69//1
f 128//48 41//47 49//2
f 41//47 50//5 49//2
f 41//47 127//46 50//5
f 127//46 51//7 50//5
f 127//46 126//49 51//7
f 126//49 52//9 51//7
f 126//49 125//50 52//9
f 125//50 53//11 52//9
f 125//50 42//43 53//11
f 42//43 54//13 53//11
f 42//43 43//42 54//13
f 43//42 68//15 54//13
f 36//41 68//15 43//42
f 36//41 72//17 68//15
f 37//40 72//17 36//41
f 44//19 72//17 37//40
f 37//40 38//39 44//19
f 38//39 71//21 44//19
f 38//39 39//38 71//21
f 39//38 45//23 71//21
f 39//38 40//37 45//23
f 40//37 46//25 45//23
f 40//37 132//36 46//25
f 132//36 47//27 46//25
f 132//36 131//35 47//27
f 131//35 70//29 47//27
f 131//35 130//34 70//29
f 130//34 48//31 70//29
f 130//34 129//33 48//31
f 129//33 69//1 48//31
f 69//1 61//48 62//33
f 48//31 69//1 62//33
f 48//31 62//33 63//34
f 70//29 48//31 63//34
f 70//29 63//34 64//35
f 47//27 70//29 64//35
f 47//27 64//35 65//36
f 46//25 47//27 65//36
f 46//25 65//36 66//37
f 45//23 46//25 66//37
f 45//23 66//37 33//38
f 71//21 45//23 33//38
f 71//21 33//38 34//39
f 44//19 71//21 34//39
f 44//19 34//39 67//40
f 72//17 44//19 67//40
f 72//17 67//40 35//41
f 72//17 35//41 68//15
f 68//15 35//41 55//42
f 54//13 68//15 55//42
f 54//13 55//42 56//43
f 53//11 54//13 56//43
f 53//11 56//43 57//44
f 52//9 53//11 57//44
f 52//9 57//44 58//45
f 51//7 52//9 58//45
f 51//7 58//45 59//46
f 50//5 51//7 59//46
f 50//5 59//46 60//47
f 49//2 50//5 60//47
f 49//2 60//47 61//48
f 69//1 49//2 61//48
f 76//1 96//2 84//48
f 96//2 85//47 84//48
f 96//2 95//51 85//47
f 95//51 86//52 85//47
f 95//51 94//53 86//52
f 94//53 87//54 86//52
f 94//53 93//9 87//54
f 93//9 88//55 87//54
f 93//9 92//56 88//55
f 92//56 89//57 88//55
f 92//56 91//58 89//57
f 91//58 90//42 89//57
f 91//58 77//15 90//42
f 77//15 111//41 90//42
f 73//17 111//41 77//15
f 73//17 78//59 111//41
f 73//17 101//19 78//59
f 101//19 112//39 78//59
f 101//19 74//21 112//39
f 74//21 113//38 112//39
f 74//21 100//23 113//38
f 100//23 79//37 113//38
f 100//23 99//25 79//37
f 99//25 80//36 79//37
f 99//25 98//27 80//36
f 98//27 81//35 80//36
f 98//27 75//29 81//35
f 75//29 82//34 81//35
f 75//29 97//31 82//34
f 97//31 83//33 82//34
f 97//31 76//1 83//33
f 76//1 84//48 83//33
f 265//33 76//1 97//31
f 266//34 265//33 97//31
f 266//34 97//31 75//29
f 267//35 266//34 75//29
f 267//35 75//29 98//27
f 105//36 267//35 98//27
f 105//36 98//27 99//25
f 106//37 105//36 99//25
f 106//37 99//25 100//23
f 107//38 106//37 100//23
f 107//38 100//23 74//21
f 108//39 107//38 74//21
f 108//39 74//21 101//19
f 109//59 108//39 101//19
f 101//19 73//17 109//59
f 109//59 73//17 110//41
f 110//41 73//17 77//15
f 110//41 77//15 261//60
f 261//60 77//15 91//58
f 262//61 261//60 91//58
f 262//61 91//58 92//56
f 102//62 262//61 92//56
f 102//62 92//56 93//9
f 103//45 102//62 93//9
f 103//45 93//9 94//53
f 263//63 103//45 94//53
f 263//63 94//53 95//51
f 104//64 263//63 95//51
f 104//64 95//51 96//2
f 264//48 104//64 96//2
f 264//48 96//2 76//1
f 265//33 264//48 76//1
f 83//33 84//48 134//1
f 84//48 119//2 134//1
f 84//48 85//47 119//2
f 85//47 120//5 119//2
f 85//47 86//52 120//5
f 86//52 121//65 120//5
f 86//52 87//54 121//65
f 87//54 122//66 121//65
f 87//54 88//55 122//66
f 88//55 123//67 122//66
f 88//55 89//57 123//67
f 89//57 124//13 123//67
f 89//57 90//42 124//13
f 90//42 133//15 124//13
f 111//41 133//15 90//42
f 111//41 137//17 133//15
f 78//59 137//17 111//41
f 114//19 137//17 78//59
f 78//59 112//39 114//19
f 112//39 136//21 114//19
f 112//39 113//38 136//21
f 113//38 115//23 136//21
f 113//38 79//37 115//23
f 79//37 116//25 115//23
f 79//37 80//36 116//25
f 80//36 117//27 116//25
f 80//36 81//35 117//27
f 81//35 135//29 117//27
f 81//35 82//34 135//29
f 82//34 118//31 135//29
f 82//34 83//33 118//31
f 83//33 134//1 118//31
f 134//1 128//48 129//33
f 118//31 134//1 129//33
f 118//31 129//33 130//34
f 135//29 118//31 130//34
f 135//29 130//34 131//35
f 117//27 135//29 131//35
f 117//27 131//35 132//36
f 116//25 117//27 132//36
f 116//25 132//36 40//37
f 115//23 116//25 40//37
f 115//23 40//37 39//38
f 136//21 115//23 39//38
f 136//21 39//38 38//39
f 114//19 136//21 38//39
f 114//19 38//39 37//40
f 137//17 114//19 37//40
f 137//17 37//40 36//41
f 137//17 36//41 133//15
f 133//15 36//41 43//42
f 124//13 133//15 43//42
f 124//13 43//42 42//43
f 123//67 124//13 42//43
f 123//67 42//43 125//50
f 122//66 123//67 125//50
f 122//66 125//50 126//49
f 121//65 122//66 126//49
f 121//65 126//49 127//46
f 120//5 121//65 127//46
f 120//5 127//46 41//47
f 119//2 120//5 41//47
f 119//2 41//47 128//48
f 134//1 119//2 128//48
f 141//1 156//2 147//48
f 156//2 241//47 147//48
f 156//2 155//5 241//47
f 155//5 148//46 241//47
f 155//5 154//7 148//46
f 154//7 149//68 148//46
f 154//7 153//9 149//68
f 153//9 150//69 149//68
f 153//9 152//11 150//69
f 152//11 240//43 150//69
f 152//11 151//13 240//43
f 151//13 239//42 240//43
f 151//13 142//15 239//42
f 142//15 246//41 239//42
f 138//17 246//41 142//15
f 138//17 245//40 246//41
f 138//17 161//19 245//40
f 161//19 244//39 245//40
f 161//19 139//21 244//39
f 139//21 243//38 244//39
f 139//21 160//23 243//38
f 160//23 242//37 243//38
f 160//23 159//25 242//37
f 159//25 143//36 242//37
f 159//25 158//27 143//36
f 158//27 144//35 143//36
f 158//27 140//29 144//35
f 140//29 145//34 144//35
f 140//29 157//31 145//34
f 157//31 146//33 145//34
f 157//31 141//1 146//33
f 141//1 147//48 146//33
f 199//33 141//1 157//31
f 200//34 199//33 157//31
f 200//34 157//31 140//29
f 201//35 200//34 140//29
f 201//35 140//29 158//27
f 202//36 201//35 158//27
f 202//36 158//27 159//25
f 203//37 202//36 159//25
f 203//37 159//25 160//23
f 162//38 203//37 160//23
f 162//38 160//23 139//21
f 163//39 162//38 139//21
f 163//39 139//21 161//19
f 204//59 163//39 161//19
f 161//19 138//17 204//59
f 204//59 138//17 164//41
f 164//41 138//17 142//15
f 164//41 142//15 192//42
f 192//42 142//15 151//13
f 193//43 192//42 151//13
f 193//43 151//13 152//11
f 194//62 193//43 152//11
f 194//62 152//11 153//9
f 195//45 194//62 153//9
f 195//45 153//9 154//7
f 196//46 195//45 154//7
f 196//46 154//7 155//5
f 197//47 196//46 155//5
f 197//47 155//5 156//2
f 198//48 197//47 156//2
f 198//48 156//2 141//1
f 199//33 198//48 141//1
f 173//70 174//71 206//1
f 174//71 186//2 206//1
f 174//71 175//72 186//2
f 175//72 187//5 186//2
f 175//72 176//73 187//5
f 176//73 188//7 187//5
f 176//73 177//74 188//7
f 177//74 189//9 188//7
f 177//74 178//75 189//9
f 178//75 190//11 189//9
f 178//75 179//76 190//11
f 179//76 191//13 190//11
f 179//76 180//77 191//13
f 180//77 205//15 191//13
f 165//78 205//15 180//77
f 165//78 209//17 205//15
f 166//79 209//17 165//78
f 181//19 209//17 166//79
f 166//79 167//80 181//19
f 167//80 208//21 181//19
f 167//80 168//81 208//21
f 168//81 182//23 208//21
f 168//81 169//82 182//23
f 169//82 183//25 182//23
f 169//82 170//83 183//25
f 170//83 184//27 183//25
f 170//83 171//84 184//27
f 171//84 207//29 184//27
f 171//84 172//85 207//29
f 172//85 185//31 207//29
f 172//85 173//70 185//31
f 173//70 206//1 185//31
f 206//1 198//48 199//33
f 185//31 206//1 199//33
f 185//31 199//33 200//34
f 207//29 185//31 200//34
f 207//29 200//34 201//35
f 184//27 207//29 201//35
f 184//27 201//35 202//36
f 183//25 184//27 202//36
f 183//25 202//36 203//37
f 182//23 183//25 203//37
f 182//23 203//37 162//38
f 208//21 182//23 162//38
f 208//21 162//38 163//39
f 181//19 208//21 163//39
f 181//19 163//39 204//59
f 209//17 181//19 204//59
f 209//17 204//59 164//41
f 209//17 164//41 205//15
f 205//15 164//41 192//42
f 191//13 205//15 192//42
f 191//13 192//42 193//43
f 190//11 191//13 193//43
f 190//11 193//43 194//62
f 189//9 190//11 194//62
f 189//9 194//62 195//45
f 188//7 189//9 195//45
f 188//7 195//45 196//46
f 187//5 188//7 196//46
f 187//5 196//46 197//47
f 186//2 187//5 197//47
f 186//2 197//47 198//48
f 206//1 186//2 198//48
f 213//1 233//2 221//86
f 233//2 222//47 221//86
f 233//2 232//5 222//47
f 232//5 223//87 222//47
f 232//5 231//88 223//87
f 231//88 224//89 223//87
f 231//88 230//90 224//89
f 230//90 225//91 224//89
f 230//90 229//92 225//91
f 229//92 226//93 225//91
f 229//92 228//13 226//93
f 228//13 227//42 226//93
f 228//13 214//15 227//42
f 214//15 247//41 227//42
f 210//17 247//41 214//15
f 210//17 215//59 247//41
f 210//17 238//19 215//59
f 238//19 248//39 215//59
f 238//19 211//21 248//39
f 211//21 249//38 248//39
f 211//21 237//23 249//38
f 237//23 216//37 249//38
f 237//23 236//25 216//37
f 236//25 217//36 216//37
f 236//25 235//27 217//36
f 235//27 218//35 217//36
f 235//27 212//29 218//35
f 212//29 219//34 218//35
f 212//29 234//31 219//34
f 234//31 220//33 219//34
f 234//31 213//1 220//33
f 213//1 221//86 220//33
f 146//33 213//1 234//31
f 145//34 146//33 234//31
f 145//34 234//31 212//29
f 144//35 145//34 212//29
f 144//35 212//29 235//27
f 143//36 144//35 235//27
f 143//36 235//27 236//25
f 242//37 143//36 236//25
f 242//37 236//25 237//23
f 243//38 242//37 237//23
f 243//38 237//23 211//21
f 244//39 243//38 211//21
f 244//39 211//21 238//19
f 245//40 244//39 238//19
f 238//19 210//17 245//40
f 245//40 210//17 246//41
f 246//41 210//17 214//15
f 246//41 214//15 239//42
f 239//42 214//15 228//13
f 240//43 239//42 228//13
f 240//43 228//13 229//92
f 150//69 240//43 229//92
f 150//69 229//92 230//90
f 149//68 150//69 230//90
f 149//68 230//90 231//88
f 148//46 149//68 231//88
f 148//46 231//88 232//5
f 241//47 148//46 232//5
f 241//47 232//5 233//2
f 147//48 241//47 233//2
f 147//48 233//2 213//1
f 146//33 147//48 213//1
f 220//33 221//86 269//1
f 221//86 255//2 269//1
f 221//86 222//47 255//2
f 222//47 256//94 255//2
f 222//47 223//87 256//94
f 223//87 257//95 256//94
f 223//87 224//89 257//95
f 224//89 258//9 257//95
f 224//89 225//91 258//9
f 225//91 259//96 258//9
f 225//91 226//93 259//96
f 226//93 260//97 259//96
f 226//93 227//42 260//97
f 227//42 268//15 260//97
f 247//41 268//15 227//42
f 247//41 272//17 268//15
f 215//59 272//17 247//41
f 250//19 272//17 215//59
f 215//59 248//39 250//19
f 248//39 271//21 250//19
f 248//39 249//38 271//21
f 249//38 251//23 271//21
f 249//38 216//37 251//23
f 216//37 252//25 251//23
f 216//37 217//36 252//25
f 217//36 253//27 252//25
f 217//36 218//35 253//27
f 218//35 270//29 253//27
f 218//35 219//34 270//29
f 219//34 254//31 270//29
f 219//34 220//33 254//31
f 220//33 269//1 254//31
f 269//1 264//48 265//33
f 254//31 269//1 265//33
f 254//31 265//33 266//34
f 270//29 254//31 266//34
f 270//29 266//34 267//35
f 253//27 270//29 267//35
f 253//27 267//35 105//36
f 252//25 253//27 105//36
f 252//25 105//36 106//37
f 251//23 252//25 106//37
f 251//23 106//37 107//38
f 271//21 251//23 107//38
f 271//21 107//38 108//39
f 250//19 271//21 108//39
f 250//19 108//39 109//59
f 272//17 250//19 109//59
f 272//17 109//59 110//41
f 272//17 110//41 268//15
f 268//15 110//41 261//60
f 260//97 268//15 261//60
f 260//97 261//60 262//61
f 259//96 260//97 262//61
f 259//96 262//61 102//62
f 258//9 259//96 102//62
f 258//9 102//62 103//45
f 257//95 258//9 103//45
f 257//95 103//45 263//63
f 256//94 257//95 263//63
f 256//94 263//63 104//64
f 255//2 256//94 104//64
f 255//2 104//64 264//48
f 269//1 255//2 264//48
