v -2.411684 0.195090 -0.980785
v -2.411684 -0.555570 -0.831470
v -2.411684 -0.831470 0.555570
v -2.411684 -0.195091 0.980785
v -2.411684 0.555570 -0.831470
v -2.756210 0.000000 -1.000000
v -2.756210 -0.382683 -0.923880
v -2.756210 -0.707107 -0.707107
v -2.756210 -0.923880 -0.382683
v -2.756210 -1.000000 0.000000
v -2.756210 -0.923880 0.382684
v -2.756210 -0.707107 0.707107
v -2.756210 -0.382683 0.923880
v -2.756210 -0.000000 1.000000
v -2.756210 0.382683 0.923880
v -2.756210 0.707107 0.707107
v -2.756210 0.923880 0.382684
v -2.756210 1.000000 -0.000000
v -2.756210 0.923879 -0.382684
v -2.756210 0.707107 -0.707107
v -2.756210 0.382683 -0.923880
v -2.411684 0.831469 -0.555570
v -2.411684 0.980785 -0.195090
v -2.411684 0.980785 0.195090
v -2.411684 0.831469 0.555570
v -2.411684 0.555570 0.831470
v -2.411684 0.195090 0.980785
v -2.411684 -0.555570 0.831470
v -2.411684 -0.980785 0.195090
v -2.411684 -0.980785 -0.195090
v -2.411684 -0.831470 -0.555570
v -2.411684 -0.195090 -0.980785
v -2.067158 -0.707107 -0.707107
v -2.067158 -0.382683 -0.923880
v -2.067158 0.382684 -0.923879
v -1.378106 0.382684 -0.923880
v -1.378106 0.000000 -1.000000
v -1.378106 -0.382683 -0.923880
v -1.378106 -0.707106 -0.707107
v -1.378106 -0.923879 -0.382684
v -1.378106 0.382683 0.923880
v -1.378106 0.923880 -0.382684
v -1.378106 0.707107 -0.707107
v -1.722632 -0.195090 -0.980785
v -1.722632 -0.831469 -0.555570
v -1.722632 -0.980785 -0.195090
v -1.722632 -0.980785 0.195090
v -1.722632 -0.555570 0.831469
v -1.722632 0.195090 0.980785
v -1.722632 0.555570 0.831470
v -1.722632 0.831470 0.555570
v -1.722632 0.980785 0.195090
v -1.722632 0.980785 -0.195090
v -1.722632 0.831470 -0.555570
v -2.067158 0.707107 -0.707107
v -2.067158 0.923880 -0.382684
v -2.067158 1.000000 -0.000000
v -2.067158 0.923880 0.382684
v -2.067158 0.707107 0.707107
v -2.067158 0.382683 0.923880
v -2.067158 0.000000 1.000000
v -2.067158 -0.382683 0.923880
v -2.067158 -0.707107 0.707107
v -2.067158 -0.923879 0.382683
v -2.067158 -1.000000 -0.000000
v -2.067158 -0.923879 -0.382683
v -2.067158 0.000000 -1.000000
v -1.722632 0.555570 -0.831470
v -1.722632 -0.195090 0.980785
v -1.722632 -0.831469 0.555570
v -1.722632 -0.555570 -0.831470
v -1.722632 0.195091 -0.980785
v -0.344528 0.195091 -0.980785
v -0.344528 -0.555570 -0.831470
v -0.344528 -0.831469 0.555570
v -0.344528 -0.195090 0.980785
v -0.344528 0.555570 -0.831470
v -0.689054 0.000000 -1.000000
v -0.689054 -0.923879 -0.382684
v -0.689054 -1.000000 -0.000000
v -0.689054 -0.923879 0.382683
v -0.689054 -0.707106 0.707107
v -0.689054 -0.382683 0.923879
v -0.689054 0.000000 1.000000
v -0.689054 0.382684 0.923879
v -0.689054 0.707107 0.707107
v -0.689054 0.923880 0.382683
v -0.689054 0.707107 -0.707107
v -0.344528 0.831470 0.555570
v -0.344528 0.555570 0.831470
v -0.344528 0.195090 0.980785
v -0.344528 -0.555570 0.831469
v -0.344528 -0.980785 0.195090
v -0.344528 -0.980785 -0.195091
v -0.344528 -0.831469 -0.555570
v -0.344528 -0.195090 -0.980785
v -0.000002 0.382684 0.923880
v -0.000002 -0.999999 -0.000000
v -0.000002 -0.923879 -0.382684
v -0.000002 -0.707106 -0.707107
v -0.000002 -0.382683 -0.923880
v -0.000002 0.000001 -1.000000
v -0.000002 0.382684 -0.923880
v -0.689054 0.382684 -0.923880
v -0.689054 -0.382683 -0.923880
v -0.689054 -0.707106 -0.707107
v -1.033580 -0.195090 -0.980785
v -1.033580 -0.831469 -0.555570
v -1.033580 -0.980785 -0.195091
v -1.033580 -0.980785 0.195090
v -1.033580 -0.555570 0.831469
v -1.033580 0.195090 0.980785
v -1.033580 0.555570 0.831470
v -1.033580 0.831470 0.555570
v -1.033580 0.980786 0.195090
v -1.033580 0.831470 -0.555571
v -1.378106 1.000000 -0.000000
v -1.378106 0.923880 0.382683
v -1.378106 0.707107 0.707107
v -1.378106 0.000000 1.000000
v -1.378106 -0.382683 0.923879
v -1.378106 -0.707107 0.707107
v -1.378106 -0.923879 0.382683
v -1.378106 -1.000000 -0.000000
v -1.033580 0.555570 -0.831470
v -1.033580 -0.195090 0.980785
v -1.033580 -0.831469 0.555570
v -1.033580 -0.555570 -0.831470
v -1.033580 0.195091 -0.980785
v 1.722628 0.195091 -0.980786
v 1.722628 -0.555569 -0.831470
v 1.722628 -0.831469 0.555570
v 1.722628 -0.195090 0.980785
v 1.722628 0.555571 -0.831470
v 1.378102 -0.999999 -0.000000
v 1.378102 -0.923879 0.382683
v 1.378102 -0.707106 0.707106
v 1.378102 -0.382683 0.923879
v 1.378102 0.000001 1.000000
v 1.378102 0.707107 0.707107
v 1.378101 0.923880 0.382683
v 1.378101 1.000001 -0.000000
v 1.722628 0.831470 -0.555571
v 1.722628 0.980786 -0.195091
v 1.722628 0.980786 0.195090
v 1.722628 0.831470 0.555570
v 1.722628 0.555571 0.831469
v 1.722628 0.195091 0.980785
v 1.722628 -0.555570 0.831469
v 1.722628 -0.980784 0.195090
v 1.722628 -0.980784 -0.195091
v 1.722628 -0.831469 -0.555571
v 1.722628 -0.195089 -0.980786
v 2.067153 -0.707106 -0.707107
v 2.067153 -0.382682 -0.923880
v 2.067153 0.382684 -0.923880
v 2.756206 0.382685 -0.923880
v 2.756206 0.000001 -1.000000
v 2.756206 -0.382682 -0.923880
v 2.756206 -0.707106 -0.707107
v 2.756206 -0.923878 -0.382684
v 2.756206 -0.999999 -0.000001
v 2.756206 -0.923879 0.382683
v 2.756206 -0.707106 0.707106
v 2.756206 -0.382683 0.923879
v 2.756206 0.000001 0.999999
v 2.756206 0.382684 0.923879
v 2.756206 0.707108 0.707107
v 2.756206 0.923880 0.382683
v 2.756206 1.000001 -0.000001
v 2.756206 0.923880 -0.382684
v 2.756206 0.707108 -0.707107
v 2.411680 -0.195089 -0.980786
v 2.411680 -0.831469 -0.555571
v 2.411680 -0.980784 -0.195091
v 2.411680 -0.980784 0.195090
v 2.411680 -0.555569 0.831469
v 2.411680 0.195091 0.980785
v 2.411680 0.555571 0.831469
v 2.411680 0.831470 0.555570
v 2.411680 0.980786 0.195090
v 2.411680 0.980786 -0.195091
v 2.411680 0.831470 -0.555571
v 2.067153 0.707108 -0.707107
v 2.067153 0.923880 -0.382684
v 2.067153 1.000001 -0.000001
v 2.067153 0.923881 0.382683
v 2.067153 0.707108 0.707107
v 2.067153 0.382684 0.923879
v 2.067153 0.000001 0.999999
v 2.067153 -0.382682 0.923879
v 2.067153 -0.707106 0.707106
v 2.067153 -0.923878 0.382683
v 2.067153 -0.999999 -0.000000
v 2.067153 -0.923878 -0.382684
v 2.067153 0.000001 -1.000000
v 2.411680 0.555571 -0.831470
v 2.411680 -0.195089 0.980785
v 2.411680 -0.831469 0.555570
v 2.411680 -0.555569 -0.831470
v 2.411680 0.195091 -0.980786
v 1.033576 0.195091 -0.980786
v 1.033576 -0.555569 -0.831470
v 1.033576 -0.831469 0.555570
v 1.033576 -0.195090 0.980785
v 1.033576 0.555571 -0.831470
v 0.689050 0.000001 -1.000000
v 0.689050 -0.923879 -0.382684
v 0.689050 -0.999999 -0.000000
v 0.689050 -0.923879 0.382683
v 0.689050 -0.707106 0.707106
v 0.689050 -0.382683 0.923879
v 0.689050 0.000001 1.000000
v 0.689050 0.382684 0.923879
v 0.689050 0.707107 0.707107
v 0.689050 0.923880 0.382683
v 0.689050 0.707107 -0.707107
v 1.033576 0.831470 -0.555571
v 1.033576 0.980786 0.195090
v 1.033576 0.831470 0.555570
v 1.033576 0.555571 0.831469
v 1.033576 0.195091 0.980785
v 1.033576 -0.555570 0.831469
v 1.033576 -0.980785 0.195090
v 1.033576 -0.980785 -0.195091
v 1.033576 -0.831469 -0.555571
v 1.033576 -0.195090 -0.980786
v 1.378102 0.707107 -0.707107
v 1.378101 0.923880 -0.382684
v 1.378102 0.382684 0.923879
v 1.378102 -0.923879 -0.382684
v 1.378102 -0.707106 -0.707107
v 1.378102 -0.382682 -0.923880
v 1.378102 0.000001 -1.000000
v 1.378102 0.382684 -0.923880
v 0.689050 0.382684 -0.923880
v 0.689050 -0.382683 -0.923880
v 0.689050 -0.707106 -0.707107
v 0.344524 -0.195090 -0.980786
v 0.344524 -0.831469 -0.555571
v 0.344524 -0.980785 -0.195091
v 0.344524 -0.980785 0.195090
v 0.344524 -0.555570 0.831469
v 0.344524 0.195091 0.980785
v 0.344524 0.555570 0.831470
v 0.344524 0.831470 0.555570
v -0.000002 0.707107 0.707107
v -0.000002 0.000000 1.000000
v -0.000002 -0.382683 0.923879
v -0.000002 -0.707106 0.707106
v -0.000002 -0.923879 0.382683
v 0.344524 0.555570 -0.831470
v 0.344524 -0.195090 0.980785
v 0.344524 -0.831469 0.555570
v 0.344524 -0.555570 -0.831470
v 0.344524 0.195091 -0.980786
v 0.344524 1.555570 -0.831470
v -0.000002 1.707107 0.707107
v -0.000002 1.923880 -0.382684
v -0.000002 1.707107 -0.707107
v 0.344524 1.831470 -0.555571
v 0.344524 1.980786 -0.195091
v 0.344524 1.980786 0.195090
v 0.344524 1.831470 0.555570
v 1.378102 1.923880 -0.382684
v 1.033576 1.980786 0.195090
v 1.033576 1.980786 -0.195091
v 1.033576 1.831470 -0.555571
v 0.689050 1.707107 -0.707107
v 0.689050 1.923880 -0.382684
v 0.689050 2.000001 -0.000000
v 0.689050 1.923880 0.382683
v 1.722628 1.980786 -0.195091
v 1.378102 2.000001 -0.000000
v -1.378106 2.000000 -0.000000
v -1.033580 1.831470 -0.555571
v -1.033580 1.980785 -0.195091
v -1.033580 1.980785 0.195090
v -0.000002 1.382684 -0.923880
v -0.000002 1.923880 0.382683
v -0.000002 2.000000 -0.000000
v -0.344528 1.831470 0.555570
v -0.344528 1.980786 0.195090
v -0.344528 1.980786 -0.195091
v -0.344528 1.831470 -0.555571
v -0.689054 1.707107 -0.707107
v -0.689054 1.923880 -0.382684
v -0.689054 2.000000 -0.000000
v -0.689054 1.923880 0.382683
v -0.344528 1.555570 -0.831470
v -1.722632 1.980785 -0.195090
v -1.378106 1.923880 -0.382684
vn 0.000000 -0.195074 0.980773
vn 0.000000 0.195074 0.980773
vn -0.019471 0.000000 0.999786
vn -0.019471 0.382611 0.923704
vn 0.000000 0.555559 0.831446
vn -0.019471 0.706961 0.706961
vn 0.000000 0.831446 0.555559
vn -0.019471 0.923704 0.382611
vn 0.000000 0.980773 0.195074
vn -0.019471 0.999786 0.000000
vn 0.000000 0.980773 -0.195074
vn -0.019471 0.923704 -0.382611
vn 0.000000 0.831446 -0.555559
vn -0.019471 0.706961 -0.706961
vn 0.000000 0.555559 -0.831446
vn -0.019471 0.382580 -0.923704
vn 0.000000 0.195074 -0.980773
vn -0.019471 0.000000 -0.999786
vn 0.000000 -0.195074 -0.980773
vn -0.019471 -0.382611 -0.923704
vn 0.000000 -0.555559 -0.831446
vn -0.019471 -0.706961 -0.706961
vn 0.000000 -0.831446 -0.555559
vn -0.019471 -0.923704 -0.382611
vn 0.000000 -0.980773 -0.195074
vn -0.019471 -0.999786 0.000000
vn 0.000000 -0.980773 0.195074
vn -0.019471 -0.923704 0.382611
vn 0.000000 -0.831446 0.555559
vn -0.019471 -0.706961 0.706961
vn 0.000000 -0.555559 0.831446
vn -0.019471 -0.382611 0.923704
vn 0.000000 -0.382672 0.923856
vn 0.000000 -0.707083 0.707083
vn 0.000000 -0.923856 0.382672
vn 0.000000 -1.000000 0.000000
vn 0.000000 -0.923856 -0.382672
vn 0.000000 -0.707083 -0.707083
vn 0.000000 -0.382672 -0.923856
vn 0.000000 0.000000 -1.000000
vn 0.000000 0.382672 -0.923856
vn 0.000000 0.707083 -0.707083
vn 0.000000 0.923856 -0.382672
vn 0.000000 0.999969 0.000000
vn 0.000000 0.923856 0.382672
vn 0.000000 0.707083 0.707083
vn 0.000000 0.382672 0.923856
vn 0.000000 0.000000 1.000000
vn -0.018342 0.991089 0.131687
vn -0.011078 0.980712 -0.195074
vn -0.018342 0.865261 -0.500961
vn -0.018342 0.750877 0.660146
vn -0.018342 0.865261 0.500961
vn -0.018342 0.441115 -0.897244
vn -0.018342 0.607685 -0.793939
vn 0.000000 0.000000 -0.999969
vn 0.000000 0.289041 -0.957305
vn 0.000000 0.633381 0.773797
vn -0.018342 0.946348 0.322520
vn -0.018342 0.750877 -0.660146
vn 0.018342 0.991089 0.131687
vn 0.011078 0.980712 -0.195074
vn 0.018342 0.865261 -0.500961
vn 0.000000 1.000000 0.000000
vn 0.019471 -0.382611 0.923704
vn 0.019471 0.000000 0.999786
vn 0.019471 0.382580 0.923704
vn 0.019471 0.706961 0.706961
vn 0.019471 0.923704 0.382611
vn 0.019471 0.999786 0.000000
vn 0.019471 0.923704 -0.382611
vn 0.019471 0.706961 -0.706961
vn 0.019471 0.382611 -0.923704
vn 0.019471 0.000000 -0.999786
vn 0.019471 -0.382611 -0.923704
vn 0.019471 -0.706961 -0.706961
vn 0.019471 -0.923704 -0.382611
vn 0.019471 -0.999786 0.000000
vn 0.019471 -0.923704 0.382611
vn 0.019471 -0.706961 0.706961
vn 0.000000 0.000000 0.999969
vn 0.018342 0.865261 0.500961
vn 0.018342 0.946348 0.322520
vn 0.018342 0.750877 -0.660146
vn 0.018342 0.607685 -0.793939
vn 0.018342 0.750877 0.660146
vn 0.018342 0.441115 -0.897244
vn -0.018342 0.897244 0.441115
vn -0.018342 0.660146 -0.750877
vn -0.018342 0.793939 -0.607685
vn -0.018342 0.966063 0.257576
vn -0.018342 0.991089 -0.131718
vn -0.018342 0.997742 0.064150
vn -0.018342 0.966063 -0.257576
vn -0.018342 0.897244 -0.441115
vn -0.055666 0.979247 -0.194769
vn 0.018342 0.997742 0.064150
vn 0.018342 0.991089 -0.131718
vn 0.018342 0.966063 -0.257576
vn 0.018342 0.897244 -0.441115
vn 0.018342 0.793939 -0.607685
vn 0.018342 0.966063 0.257576
vn 0.018342 0.897244 0.441115
vn 0.018342 0.660146 -0.750877
vn 0.055666 0.979247 -0.194769
f 4//1 27//2 14//3
f 27//2 15//4 14//3
f 27//2 26//5 15//4
f 26//5 16//6 15//4
f 26//5 25//7 16//6
f 25//7 17//8 16//6
f 25//7 24//9 17//8
f 24//9 18//10 17//8
f 24//9 23//11 18//10
f 23//11 19//12 18//10
f 23//11 22//13 19//12
f 22//13 20//14 19//12
f 22//13 5//15 20//14
f 5//15 21//16 20//14
f 1//17 21//16 5//15
f 1//17 6//18 21//16
f 1//17 32//19 6//18
f 32//19 7//20 6//18
f 32//19 2//21 7//20
f 2//21 8//22 7//20
f 2//21 31//23 8//22
f 31//23 9//24 8//22
f 31//23 30//25 9//24
f 30//25 10//26 9//24
f 30//25 29//27 10//26
f 29//27 11//28 10//26
f 29//27 3//29 11//28
f 3//29 12//30 11//28
f 3//29 28//31 12//30
f 28//31 13//32 12//30
f 28//31 4//1 13//32
f 4//1 14//3 13//32
f 62//33 4//1 28//31
f 63//34 62//33 28//31
f 63//34 28//31 3//29
f 64//35 63//34 3//29
f 64//35 3//29 29//27
f 65//36 64//35 29//27
f 65//36 29//27 30//25
f 66//37 65//36 30//25
f 66//37 30//25 31//23
f 33//38 66//37 31//23
f 33//38 31//23 2//21
f 34//39 33//38 2//21
f 34//39 2//21 32//19
f 67//40 34//39 32//19
f 32//19 1//17 67//40
f 67//40 1//17 35//41
f 35//41 1//17 5//15
f 35//41 5//15 55//42
f 55//42 5//15 22//13
f 56//43 55//42 22//13
f 56//43 22//13 23//11
f 57//44 56//43 23//11
f 57//44 23//11 24//9
f 58//45 57//44 24//9
f 58//45 24//9 25//7
f 59//46 58//45 25//7
f 59//46 25//7 26//5
f 60//47 59//46 26//5
f 60//47 26//5 27//2
f 61//48 60//47 27//2
f 61//48 27//2 4//1
f 62//33 61//48 4//1
f 121//33 120//48 69//1
f 120//48 49//2 69//1
f 120//48 41//47 49//2
f 41//47 50//5 49//2
f 41//47 119//46 50//5
f 119//46 51//7 50//5
f 119//46 118//45 51//7
f 118//45 52//9 51//7
f 118//45 117//49 52//9
f 117//49 53//50 52//9
f 42//51 54//13 53//50
f 42//51 43//42 54//13
f 43//42 68//15 54//13
f 36//41 68//15 43//42
f 36//41 72//17 68//15
f 37//40 72//17 36//41
f 44//19 72//17 37//40
f 37//40 38//39 44//19
f 38//39 71//21 44//19
f 38//39 39//38 71//21
f 39//38 45//23 71//21
f 39//38 40//37 45//23
f 40//37 46//25 45//23
f 40//37 124//36 46//25
f 124//36 47//27 46//25
f 124//36 123//35 47//27
f 123//35 70//29 47//27
f 123//35 122//34 70//29
f 122//34 48//31 70//29
f 122//34 121//33 48//31
f 121//33 69//1 48//31
f 69//1 61//48 62//33
f 48//31 69//1 62//33
f 48//31 62//33 63//34
f 70//29 48//31 63//34
f 70//29 63//34 64//35
f 47//27 70//29 64//35
f 47//27 64//35 65//36
f 46//25 47//27 65//36
f 46//25 65//36 66//37
f 45//23 46//25 66//37
f 45//23 66//37 33//38
f 71//21 45//23 33//38
f 71//21 33//38 34//39
f 44//19 71//21 34//39
f 44//19 34//39 67//40
f 72//17 44//19 67//40
f 72//17 67//40 35//41
f 72//17 35//41 68//15
f 68//15 35//41 55//42
f 54//13 68//15 55//42
f 54//13 55//42 56//43
f 53//50 54//13 56//43
f 53//50 56//43 57//44
f 52//9 53//50 57//44
f 52//9 57//44 58//45
f 51//7 52//9 58//45
f 51//7 58//45 59//46
f 50//5 51//7 59//46
f 50//5 59//46 60//47
f 49//2 50//5 60//47
f 49//2 60//47 61//48
f 69//1 49//2 61//48
f 76//1 91//2 84//48
f 91//2 85//47 84//48
f 91//2 90//5 85//47
f 90//5 86//46 85//47
f 90//5 89//52 86//46
f 89//52 87//53 86//46
f 77//54 104//41 88//55
f 73//17 104//41 77//54
f 73//17 78//56 104//41
f 73//17 96//19 78//56
f 96//19 105//39 78//56
f 96//19 74//21 105//39
f 74//21 106//38 105//39
f 74//21 95//23 106//38
f 95//23 79//37 106//38
f 95//23 94//25 79//37
f 94//25 80//36 79//37
f 94//25 93//27 80//36
f 93//27 81//35 80//36
f 93//27 75//29 81//35
f 75//29 82//34 81//35
f 75//29 92//31 82//34
f 92//31 83//33 82//34
f 92//31 76//1 83//33
f 76//1 84//48 83//33
f 249//33 76//1 92//31
f 250//34 249//33 92//31
f 250//34 92//31 75//29
f 251//35 250//34 75//29
f 251//35 75//29 93//27
f 98//36 251//35 93//27
f 98//36 93//27 94//25
f 99//37 98//36 94//25
f 99//37 94//25 95//23
f 100//38 99//37 95//23
f 100//38 95//23 74//21
f 101//39 100//38 74//21
f 101//39 74//21 96//19
f 102//56 101//39 96//19
f 96//19 73//17 102//56
f 102//56 73//17 103//57
f 103//57 73//17 77//54
f 247//58 89//52 90//5
f 97//47 247//58 90//5
f 97//47 90//5 91//2
f 248//48 97//47 91//2
f 248//48 91//2 76//1
f 249//33 248//48 76//1
f 83//33 84//48 126//1
f 84//48 112//2 126//1
f 84//48 85//47 112//2
f 85//47 113//5 112//2
f 85//47 86//46 113//5
f 86//46 114//7 113//5
f 86//46 87//53 114//7
f 87//53 115//59 114//7
f 88//55 125//15 116//60
f 104//41 125//15 88//55
f 104//41 129//17 125//15
f 78//56 129//17 104//41
f 107//19 129//17 78//56
f 78//56 105//39 107//19
f 105//39 128//21 107//19
f 105//39 106//38 128//21
f 106//38 108//23 128//21
f 106//38 79//37 108//23
f 79//37 109//25 108//23
f 79//37 80//36 109//25
f 80//36 110//27 109//25
f 80//36 81//35 110//27
f 81//35 127//29 110//27
f 81//35 82//34 127//29
f 82//34 111//31 127//29
f 82//34 83//33 111//31
f 83//33 126//1 111//31
f 126//1 120//48 121//33
f 111//31 126//1 121//33
f 111//31 121//33 122//34
f 127//29 111//31 122//34
f 127//29 122//34 123//35
f 110//27 127//29 123//35
f 110//27 123//35 124//36
f 109//25 110//27 124//36
f 109//25 124//36 40//37
f 108//23 109//25 40//37
f 108//23 40//37 39//38
f 128//21 108//23 39//38
f 128//21 39//38 38//39
f 107//19 128//21 38//39
f 107//19 38//39 37//40
f 129//17 107//19 37//40
f 129//17 37//40 36//41
f 129//17 36//41 125//15
f 125//15 36//41 43//42
f 116//60 125//15 43//42
f 116//60 43//42 42//51
f 115//59 117//49 118//45
f 114//7 115//59 118//45
f 114//7 118//45 119//46
f 113//5 114//7 119//46
f 113//5 119//46 41//47
f 112//2 113//5 41//47
f 112//2 41//47 120//48
f 126//1 112//2 120//48
f 133//1 148//2 139//48
f 148//2 230//47 139//48
f 148//2 147//5 230//47
f 147//5 140//46 230//47
f 147//5 146//7 140//46
f 146//7 141//45 140//46
f 146//7 145//9 141//45
f 145//9 142//61 141//45
f 145//9 144//62 142//61
f 144//62 143//13 229//63
f 143//13 228//42 229//63
f 143//13 134//15 228//42
f 134//15 235//41 228//42
f 130//17 235//41 134//15
f 130//17 234//40 235//41
f 130//17 153//19 234//40
f 153//19 233//39 234//40
f 153//19 131//21 233//39
f 131//21 232//38 233//39
f 131//21 152//23 232//38
f 152//23 231//37 232//38
f 152//23 151//25 231//37
f 151//25 135//36 231//37
f 151//25 150//27 135//36
f 150//27 136//35 135//36
f 150//27 132//29 136//35
f 132//29 137//34 136//35
f 132//29 149//31 137//34
f 149//31 138//33 137//34
f 149//31 133//1 138//33
f 133//1 139//48 138//33
f 191//33 133//1 149//31
f 192//34 191//33 149//31
f 192//34 149//31 132//29
f 193//35 192//34 132//29
f 193//35 132//29 150//27
f 194//36 193//35 150//27
f 194//36 150//27 151//25
f 195//37 194//36 151//25
f 195//37 151//25 152//23
f 154//38 195//37 152//23
f 154//38 152//23 131//21
f 155//39 154//38 131//21
f 155//39 131//21 153//19
f 196//56 155//39 153//19
f 153//19 130//17 196//56
f 196//56 130//17 156//41
f 156//41 130//17 134//15
f 156//41 134//15 184//42
f 184//42 134//15 143//13
f 185//43 184//42 143//13
f 185//43 143//13 144//62
f 186//64 185//43 144//62
f 186//64 144//62 145//9
f 187//45 186//64 145//9
f 187//45 145//9 146//7
f 188//46 187//45 146//7
f 188//46 146//7 147//5
f 189//47 188//46 147//5
f 189//47 147//5 148//2
f 190//48 189//47 148//2
f 190//48 148//2 133//1
f 191//33 190//48 133//1
f 165//65 166//66 198//1
f 166//66 178//2 198//1
f 166//66 167//67 178//2
f 167//67 179//5 178//2
f 167//67 168//68 179//5
f 168//68 180//7 179//5
f 168//68 169//69 180//7
f 169//69 181//9 180//7
f 169//69 170//70 181//9
f 170//70 182//11 181//9
f 170//70 171//71 182//11
f 171//71 183//13 182//11
f 171//71 172//72 183//13
f 172//72 197//15 183//13
f 157//73 197//15 172//72
f 157//73 201//17 197//15
f 158//74 201//17 157//73
f 173//19 201//17 158//74
f 158//74 159//75 173//19
f 159//75 200//21 173//19
f 159//75 160//76 200//21
f 160//76 174//23 200//21
f 160//76 161//77 174//23
f 161//77 175//25 174//23
f 161//77 162//78 175//25
f 162//78 176//27 175//25
f 162//78 163//79 176//27
f 163//79 199//29 176//27
f 163//79 164//80 199//29
f 164//80 177//31 199//29
f 164//80 165//65 177//31
f 165//65 198//1 177//31
f 198//1 190//48 191//33
f 177//31 198//1 191//33
f 177//31 191//33 192//34
f 199//29 177//31 192//34
f 199//29 192//34 193//35
f 176//27 199//29 193//35
f 176//27 193//35 194//36
f 175//25 176//27 194//36
f 175//25 194//36 195//37
f 174//23 175//25 195//37
f 174//23 195//37 154//38
f 200//21 174//23 154//38
f 200//21 154//38 155//39
f 173//19 200//21 155//39
f 173//19 155//39 196//56
f 201//17 173//19 196//56
f 201//17 196//56 156//41
f 201//17 156//41 197//15
f 197//15 156//41 184//42
f 183//13 197//15 184//42
f 183//13 184//42 185//43
f 182//11 183//13 185//43
f 182//11 185//43 186//64
f 181//9 182//11 186//64
f 181//9 186//64 187//45
f 180//7 181//9 187//45
f 180//7 187//45 188//46
f 179//5 180//7 188//46
f 179//5 188//46 189//47
f 178//2 179//5 189//47
f 178//2 189//47 190//48
f 198//1 178//2 190//48
f 205//1 222//2 213//81
f 222//2 214//47 213//81
f 222//2 221//5 214//47
f 221//5 215//46 214//47
f 221//5 220//7 215//46
f 220//7 216//82 215//46
f 220//7 219//83 216//82
f 218//84 206//15 217//85
f 206//15 236//41 217//85
f 202//17 236//41 206//15
f 202//17 207//56 236//41
f 202//17 227//19 207//56
f 227//19 237//39 207//56
f 227//19 203//21 237//39
f 203//21 238//38 237//39
f 203//21 226//23 238//38
f 226//23 208//37 238//38
f 226//23 225//25 208//37
f 225//25 209//36 208//37
f 225//25 224//27 209//36
f 224//27 210//35 209//36
f 224//27 204//29 210//35
f 204//29 211//34 210//35
f 204//29 223//31 211//34
f 223//31 212//33 211//34
f 223//31 205//1 212//33
f 205//1 213//81 212//33
f 138//33 205//1 223//31
f 137//34 138//33 223//31
f 137//34 223//31 204//29
f 136//35 137//34 204//29
f 136//35 204//29 224//27
f 135//36 136//35 224//27
f 135//36 224//27 225//25
f 231//37 135//36 225//25
f 231//37 225//25 226//23
f 232//38 231//37 226//23
f 232//38 226//23 203//21
f 233//39 232//38 203//21
f 233//39 203//21 227//19
f 234//40 233//39 227//19
f 227//19 202//17 234//40
f 234//40 202//17 235//41
f 235//41 202//17 206//15
f 235//41 206//15 228//42
f 228//42 206//15 218//84
f 229//63 228//42 218//84
f 141//45 142//61 219//83
f 141//45 219//83 220//7
f 140//46 141//45 220//7
f 140//46 220//7 221//5
f 230//47 140//46 221//5
f 230//47 221//5 222//2
f 139//48 230//47 222//2
f 139//48 222//2 205//1
f 138//33 139//48 205//1
f 212//33 213//81 253//1
f 213//81 244//2 253//1
f 213//81 214//47 244//2
f 214//47 245//5 244//2
f 214//47 215//46 245//5
f 215//46 246//86 245//5
f 215//46 216//82 246//86
f 236//41 252//87 217//85
f 236//41 256//17 252//87
f 207//56 256//17 236//41
f 239//19 256//17 207//56
f 207//56 237//39 239//19
f 237//39 255//21 239//19
f 237//39 238//38 255//21
f 238//38 240//23 255//21
f 238//38 208//37 240//23
f 208//37 241//25 240//23
f 208//37 209//36 241//25
f 209//36 242//27 241//25
f 209//36 210//35 242//27
f 210//35 254//29 242//27
f 210//35 211//34 254//29
f 211//34 243//31 254//29
f 211//34 212//33 243//31
f 212//33 253//1 243//31
f 253//1 248//48 249//33
f 243//31 253//1 249//33
f 243//31 249//33 250//34
f 254//29 243//31 250//34
f 254//29 250//34 251//35
f 242//27 254//29 251//35
f 242//27 251//35 98//36
f 241//25 242//27 98//36
f 241//25 98//36 99//37
f 240//23 241//25 99//37
f 240//23 99//37 100//38
f 255//21 240//23 100//38
f 255//21 100//38 101//39
f 239//19 255//21 101//39
f 239//19 101//39 102//56
f 256//17 239//19 102//56
f 256//17 102//56 103//57
f 256//17 103//57 252//87
f 245//5 246//86 247//58
f 245//5 247//58 97//47
f 244//2 245//5 97//47
f 244//2 97//47 248//48
f 253//1 244//2 248//48
f 264//88 280//45 258//7
f 264//88 263//9 280//45
f 263//9 281//64 280//45
f 263//9 262//11 281//64
f 262//11 259//43 281//64
f 262//11 261//13 259//43
f 261//13 260//42 259//43
f 261//13 257//89 260//42
f 257//89 279//15 260//42
f 269//90 257//89 261//13
f 270//43 269//90 261//13
f 270//43 261//13 262//11
f 271//44 270//43 262//11
f 271//44 262//11 263//9
f 272//91 271//44 263//9
f 272//91 263//9 264//88
f 274//92 267//11 266//93
f 274//92 265//94 267//11
f 265//94 268//95 267//11
f 268//95 269//90 270//43
f 267//11 268//95 270//43
f 267//11 270//43 271//44
f 266//93 267//11 271//44
f 266//93 271//44 272//91
f 273//96 265//94 274//92
f 278//97 277//11 275//98
f 277//11 292//99 275//98
f 277//11 276//100 292//99
f 287//43 286//101 276//100
f 287//43 276//100 277//11
f 288//64 287//43 277//11
f 288//64 277//11 278//97
f 289//102 288//64 278//97
f 258//7 280//45 282//103
f 280//45 283//9 282//103
f 280//45 281//64 283//9
f 281//64 284//11 283//9
f 281//64 259//43 284//11
f 259//43 285//13 284//11
f 259//43 260//42 285//13
f 260//42 290//104 285//13
f 279//15 290//104 260//42
f 285//13 290//104 286//101
f 285//13 286//101 287//43
f 284//11 285//13 287//43
f 284//11 287//43 288//64
f 283//9 284//11 288//64
f 283//9 288//64 289//102
f 282//103 283//9 289//102
f 275//98 292//99 291//105
