####
#
# OBJ File Generated by Meshlab
#
####
# Object anevrism200.obj
#
# Vertices: 102
# Faces: 200
#
####
vn 0.268951 -0.055075 -0.961578
v 0.004716 -0.936203 -0.080699
vn 0.840868 -0.026244 0.540604
v 0.071053 -0.369738 0.086992
vn -0.818944 0.524388 -0.233126
v 0.412366 0.532954 -0.576518
vn -0.843667 0.337379 -0.417614
v 0.068358 0.214156 -0.163666
vn -0.016001 -0.106304 0.994205
v -0.244610 0.457586 0.336700
vn 0.268340 0.008074 0.963290
v -0.012176 -0.326021 0.136172
vn -0.917892 0.185090 -0.351021
v 0.452390 0.344031 0.237528
vn 0.011356 -0.839432 0.543346
v 0.184463 0.273174 0.258032
vn 0.111618 0.742522 -0.660457
v -0.126526 0.729380 -0.100912
vn 0.045669 0.824681 0.563751
v 0.311836 0.435251 -0.317402
vn 0.952727 0.095669 0.288373
v 0.577037 0.402576 0.148070
vn -0.658658 -0.213335 0.721566
v 0.069741 0.133212 0.190067
vn -0.887718 0.453249 -0.080755
v -0.281735 0.672269 0.061475
vn -0.647071 -0.733544 0.207874
v 0.105299 0.049839 0.278606
vn 0.309361 -0.939870 -0.144709
v 0.236780 0.038212 0.315474
vn -0.548004 -0.301005 -0.780441
v 0.017062 0.260535 -0.062687
vn 0.677870 -0.309963 -0.666645
v 0.077599 -0.970367 -0.036387
vn 0.806312 -0.591135 -0.020499
v 0.221817 0.057295 -0.061585
vn 0.026890 0.428465 -0.903158
v 0.281332 0.153659 0.364559
vn 0.614976 0.436059 0.657007
v 0.488958 0.445370 -0.421848
vn 0.770051 -0.611136 -0.183124
v 0.642994 0.480068 -0.101834
vn -0.212800 0.857743 0.467967
v 0.487177 0.396605 0.228026
vn -0.046802 -0.768215 -0.638478
v 0.196522 0.122700 -0.194503
vn -0.850439 -0.512242 0.119840
v -0.105282 -0.969295 0.035507
vn 0.038700 -0.058885 0.997514
v 0.289484 0.360089 0.432249
vn 0.774425 -0.628463 0.072801
v 0.310227 0.189755 -0.235000
vn 0.525989 -0.225914 0.819938
v 0.065875 -0.960820 0.097308
vn -0.182231 0.894864 0.407443
v 0.179100 0.301454 -0.141186
vn -0.652756 -0.226848 -0.722806
v 0.039584 0.102099 -0.113478
vn -0.996439 0.052473 -0.065999
v -0.120296 -0.331493 -0.003166
vn -0.816455 -0.335047 -0.470261
v -0.307479 0.362847 0.010390
vn -0.461698 -0.881175 -0.101817
v -0.225478 0.257957 0.088474
vn 0.385175 0.778829 0.495041
v 0.159863 0.658155 0.208401
vn -0.654742 0.081659 -0.751429
v 0.494178 0.492302 -0.744339
vn -0.457895 -0.157867 0.874877
v 0.076026 0.065349 0.084673
vn -0.887040 -0.028162 -0.460833
v -0.102827 -0.891687 -0.032654
vn 0.925825 0.098279 0.364950
v 0.260312 0.191621 -0.034771
vn -0.582467 0.761169 0.285227
v 0.316568 0.205965 0.392427
vn 0.002821 -0.182215 -0.983255
v 0.064845 0.019620 -0.122022
vn -0.022397 -0.734679 -0.678045
v 0.483336 0.303078 0.209366
vn -0.792198 0.162852 -0.588134
v -0.054168 -0.017910 -0.062519
vn 0.900194 -0.329754 -0.284451
v 0.244946 0.250919 0.025781
vn 0.415901 -0.474049 -0.776083
v 0.325638 0.108177 0.344503
vn 0.629199 -0.766951 0.126075
v 0.384920 0.330789 0.343362
vn 0.922381 -0.044369 -0.383725
v 0.098252 -0.386901 -0.030041
vn 0.867755 0.493946 -0.054952
v 0.263931 0.576577 0.118414
vn 0.478994 0.812500 0.332277
v 0.608956 0.548572 -0.081675
vn -0.515256 0.029170 -0.856540
v -0.171450 0.597316 -0.131020
vn -0.187496 -0.460012 0.867891
v -0.045867 0.320206 0.274029
vn 0.682732 0.257798 0.683680
v 0.526512 0.320560 0.316827
vn 0.795466 -0.604798 -0.038129
v 0.154789 0.084222 0.135723
vn -0.160623 -0.276220 0.947577
v 0.142045 0.423826 0.378782
vn 0.626872 -0.650262 0.429174
v 0.401184 0.138720 0.383171
vn -0.708134 -0.245849 -0.661894
v 0.264766 0.335562 -0.446738
vn 0.860599 0.492635 0.129154
v 0.428362 0.483687 0.321422
vn 0.416011 -0.075522 -0.906218
v 0.126048 0.319285 -0.083255
vn 0.932554 -0.217964 -0.287810
v 0.146548 -0.075298 -0.058730
vn 0.561778 0.461629 0.686515
v 0.317218 0.322002 -0.193847
vn 0.273588 0.785714 0.554800
v 0.542756 0.586687 -0.570706
vn -0.368057 -0.196149 -0.908879
v -0.062426 -0.960497 -0.076117
vn -0.364894 0.723184 0.586393
v -0.182345 0.696034 0.202273
vn -0.177601 0.981223 0.075222
v -0.151692 0.827344 0.024294
vn -0.201304 -0.678946 -0.706052
v 0.503110 0.414792 -0.732361
vn -0.093297 -0.172654 -0.980554
v 0.041277 0.499327 -0.170941
vn -0.939473 -0.017431 0.342178
v -0.086741 -0.893230 0.101340
vn 0.205452 0.955137 0.213313
v -0.076285 0.790709 0.134665
vn 0.862696 -0.436592 0.255231
v 0.536261 0.385687 -0.491360
vn 0.987597 -0.021194 0.155575
v 0.111147 -0.854139 0.035726
vn -0.517535 -0.832724 0.196796
v -0.029083 0.206205 0.103643
vn -0.584136 -0.522012 -0.621521
v 0.572434 0.477203 -0.120338
vn 0.588831 0.067939 -0.805395
v 0.162843 0.500918 -0.165676
vn 0.662285 -0.171428 0.729377
v 0.101413 -0.014443 0.089249
vn -0.557077 0.011025 -0.830388
v -0.067750 -0.356592 -0.074181
vn 0.182002 0.685811 -0.704655
v 0.062502 0.683871 -0.126636
vn 0.656862 0.716469 -0.234954
v 0.238059 0.704696 0.020754
vn 0.348828 0.698721 0.624585
v 0.220312 0.549036 0.300804
vn -0.786658 0.562764 -0.253901
v -0.243747 0.772934 -0.028855
vn 0.876841 -0.036947 -0.479359
v 0.290795 0.430648 -0.000019
vn 0.063569 0.312060 0.947933
v 0.417272 0.226497 0.409242
vn -0.959311 0.185877 0.212536
v -0.031278 0.063075 0.025343
vn -0.988150 0.063695 -0.139653
v -0.350958 0.529578 0.091057
vn 0.283290 -0.053249 -0.957555
v 0.003772 -0.416086 -0.088784
vn 0.022167 -0.614765 0.788399
v 0.222128 0.062648 0.387173
vn -0.674433 -0.589220 0.444926
v -0.273146 0.350315 0.274204
vn -0.853891 0.512542 -0.090393
v 0.572778 0.544394 -0.121416
vn 0.610165 -0.772207 -0.177189
v 0.517168 0.369965 -0.638325
vn 0.921009 -0.260270 -0.289832
v 0.323434 0.340010 0.140670
vn -0.406175 0.845722 -0.346088
v 0.494242 0.674299 -0.726162
vn -0.324139 -0.529081 -0.784224
v -0.128190 0.314728 -0.075129
vn 0.977128 -0.020641 -0.211647
v 0.676369 0.589592 -0.747954
vn -0.168035 0.349121 0.921889
v 0.095637 0.572746 0.393585
vn -0.689434 0.722468 -0.052160
v 0.235514 0.410723 -0.355236
vn 0.669125 -0.228204 0.707244
v 0.254813 0.237580 0.222297
vn -0.642615 0.435568 0.630339
v -0.286696 0.580213 0.297954
vn -0.541319 0.546467 0.639021
v 0.208885 0.122328 0.403481
vn -0.054453 0.439036 0.896818
v 0.011406 0.590530 0.304468
vn 0.089671 -0.905331 -0.415131
v 0.366517 0.273437 -0.437123
vn -0.230504 -0.093999 0.968520
v -0.058425 -0.943341 0.135535
vn 0.670107 -0.688737 -0.276762
v 0.535106 0.270658 0.272789
vn -0.874392 0.075325 0.479337
v -0.100471 -0.306362 0.082487
vn 0.811106 -0.154850 0.564029
v 0.403290 0.311592 -0.280378
vn -0.436927 0.141823 0.888246
v -0.054136 -0.267172 0.119213
# 102 vertices, 102 vertices normals

f 87//87 42//42 78//78
f 54//54 97//97 23//23
f 67//67 101//101 26//26
f 18//18 72//72 57//57
f 97//97 86//86 67//67
f 12//12 51//51 14//14
f 54//54 63//63 97//97
f 40//40 7//7 70//70
f 94//94 96//96 61//61
f 38//38 19//19 95//95
f 74//74 9//9 66//66
f 71//71 56//56 64//64
f 23//23 97//97 26//26
f 25//25 8//8 44//44
f 99//99 11//11 50//50
f 48//48 13//13 77//77
f 93//93 8//8 49//49
f 60//60 82//82 1//1
f 100//100 102//102 80//80
f 37//37 18//18 26//26
f 57//57 82//82 39//39
f 99//99 53//53 43//43
f 63//63 34//34 90//90
f 87//87 44//44 8//8
f 3//3 54//54 92//92
f 78//78 75//75 46//46
f 94//94 13//13 81//81
f 19//19 40//40 43//43
f 55//55 44//44 87//87
f 24//24 27//27 98//98
f 24//24 17//17 27//27
f 67//67 26//26 97//97
f 66//66 9//9 62//62
f 24//24 60//60 17//17
f 69//69 32//32 89//89
f 31//31 84//84 81//81
f 38//38 95//95 79//79
f 29//29 80//80 4//4
f 5//5 84//84 49//49
f 18//18 23//23 26//26
f 8//8 93//93 87//87
f 29//29 39//39 41//41
f 24//24 36//36 60//60
f 22//22 47//47 85//85
f 9//9 48//48 77//77
f 57//57 2//2 45//45
f 72//72 2//2 57//57
f 102//102 98//98 6//6
f 13//13 94//94 61//61
f 5//5 96//96 94//94
f 38//38 7//7 19//19
f 12//12 14//14 95//95
f 14//14 51//51 15//15
f 8//8 52//52 49//49
f 53//53 50//50 79//79
f 11//11 21//21 47//47
f 22//22 7//7 38//38
f 101//101 20//20 58//58
f 79//79 83//83 53//53
f 72//72 6//6 2//2
f 91//91 49//49 52//52
f 90//90 67//67 86//86
f 72//72 51//51 35//35
f 75//75 66//66 33//33
f 69//69 84//84 32//32
f 49//49 84//84 69//69
f 83//83 14//14 15//15
f 46//46 87//87 78//78
f 36//36 24//24 30//30
f 90//90 59//59 67//67
f 28//28 58//58 10//10
f 28//28 92//92 4//4
f 47//47 70//70 85//85
f 18//18 51//51 72//72
f 49//49 96//96 5//5
f 32//32 31//31 89//89
f 88//88 59//59 90//90
f 101//101 67//67 20//20
f 91//91 52//52 76//76
f 15//15 43//43 53//53
f 24//24 98//98 65//65
f 100//100 65//65 98//98
f 30//30 41//41 73//73
f 80//80 41//41 30//30
f 95//95 83//83 79//79
f 82//82 60//60 73//73
f 54//54 34//34 63//63
f 50//50 11//11 22//22
f 66//66 62//62 61//61
f 88//88 3//3 59//59
f 79//79 50//50 22//22
f 22//22 38//38 79//79
f 64//64 16//16 89//89
f 18//18 57//57 39//39
f 14//14 83//83 95//95
f 9//9 77//77 62//62
f 18//18 37//37 51//51
f 81//81 48//48 31//31
f 93//93 42//42 87//87
f 45//45 2//2 68//68
f 8//8 25//25 52//52
f 46//46 33//33 76//76
f 35//35 12//12 69//69
f 80//80 69//69 16//16
f 80//80 16//16 4//4
f 15//15 53//53 83//83
f 70//70 7//7 85//85
f 61//61 62//62 77//77
f 89//89 16//16 69//69
f 82//82 73//73 39//39
f 89//89 48//48 64//64
f 40//40 70//70 21//21
f 84//84 31//31 32//32
f 37//37 26//26 58//58
f 5//5 94//94 84//84
f 94//94 81//81 84//84
f 44//44 55//55 25//25
f 40//40 21//21 11//11
f 72//72 35//35 102//102
f 19//19 51//51 93//93
f 59//59 10//10 20//20
f 43//43 51//51 19//19
f 90//90 86//86 63//63
f 12//12 35//35 51//51
f 49//49 12//12 93//93
f 23//23 18//18 39//39
f 48//48 74//74 64//64
f 66//66 96//96 33//33
f 55//55 76//76 25//25
f 10//10 58//58 20//20
f 64//64 56//56 16//16
f 3//3 34//34 54//54
f 69//69 80//80 35//35
f 92//92 28//28 10//10
f 13//13 61//61 77//77
f 89//89 31//31 48//48
f 100//100 30//30 65//65
f 74//74 48//48 9//9
f 66//66 61//61 96//96
f 11//11 99//99 40//40
f 28//28 4//4 56//56
f 42//42 37//37 56//56
f 12//12 95//95 93//93
f 78//78 71//71 75//75
f 29//29 54//54 23//23
f 71//71 74//74 75//75
f 53//53 99//99 50//50
f 21//21 70//70 47//47
f 4//4 16//16 56//56
f 4//4 92//92 54//54
f 55//55 46//46 76//76
f 58//58 26//26 101//101
f 48//48 81//81 13//13
f 45//45 17//17 82//82
f 82//82 57//57 45//45
f 91//91 96//96 49//49
f 10//10 59//59 92//92
f 30//30 24//24 65//65
f 42//42 51//51 37//37
f 86//86 97//97 63//63
f 85//85 7//7 22//22
f 55//55 87//87 46//46
f 42//42 56//56 78//78
f 56//56 71//71 78//78
f 41//41 80//80 29//29
f 91//91 76//76 33//33
f 80//80 30//30 100//100
f 12//12 49//49 69//69
f 102//102 6//6 72//72
f 82//82 17//17 1//1
f 54//54 29//29 4//4
f 67//67 59//59 20//20
f 102//102 100//100 98//98
f 91//91 33//33 96//96
f 23//23 39//39 29//29
f 52//52 25//25 76//76
f 46//46 75//75 33//33
f 73//73 41//41 39//39
f 74//74 71//71 64//64
f 2//2 27//27 68//68
f 56//56 37//37 28//28
f 7//7 40//40 19//19
f 17//17 68//68 27//27
f 19//19 93//93 95//95
f 73//73 60//60 36//36
f 30//30 73//73 36//36
f 34//34 3//3 88//88
f 17//17 45//45 68//68
f 80//80 102//102 35//35
f 40//40 99//99 43//43
f 1//1 17//17 60//60
f 98//98 27//27 6//6
f 15//15 51//51 43//43
f 3//3 92//92 59//59
f 74//74 66//66 75//75
f 11//11 47//47 22//22
f 90//90 34//34 88//88
f 6//6 27//27 2//2
f 51//51 42//42 93//93
f 58//58 28//28 37//37
# 200 faces, 0 coords texture

# End of File