####
#
# OBJ File Generated by Meshlab
#
####
# Object anevrism400.obj
#
# Vertices: 202
# Faces: 400
#
####
vn 0.497628 0.024726 0.867038
v 0.010103 -0.485933 0.126871
vn 0.119371 -0.985819 0.117944
v 0.135551 0.080228 0.135483
vn -0.899440 -0.009201 -0.436948
v -0.104543 -0.462883 -0.031178
vn 0.825204 0.329892 -0.458486
v 0.336929 0.489107 0.174164
vn 0.845149 -0.373981 -0.381918
v 0.172022 0.086960 0.184898
vn -0.117320 -0.150073 -0.981690
v 0.063542 0.493250 -0.176183
vn 0.174792 -0.575027 -0.799244
v 0.369165 0.143036 0.323671
vn 0.181396 -0.080997 -0.980069
v 0.004716 -0.936203 -0.080699
vn 0.634623 0.010905 0.772745
v 0.072282 -0.534461 0.090599
vn -0.100163 0.872730 0.477818
v 0.505107 0.564725 -0.535690
vn 0.485812 0.351946 -0.800075
v 0.129900 0.546979 -0.163729
vn -0.378119 0.847874 0.371666
v 0.482742 0.633640 -0.656875
vn -0.814611 0.297922 -0.497645
v 0.317225 0.427729 -0.487722
vn -0.637080 0.730888 -0.244809
v 0.077579 0.245656 -0.134131
vn 0.384355 0.594822 0.706016
v 0.377927 0.393615 -0.283593
vn -0.015366 0.620951 -0.783698
v -0.162725 0.746442 -0.097410
vn 0.004325 0.128192 0.991740
v -0.209876 0.509268 0.336488
vn 0.283552 0.040678 0.958094
v -0.015495 -0.328244 0.137008
vn -0.906166 0.274507 -0.321729
v 0.452390 0.344031 0.237528
vn -0.167837 -0.698116 0.696035
v 0.128988 0.305223 0.281754
vn 0.463795 0.776046 0.427372
v 0.162617 0.650902 0.233346
vn 0.540370 -0.074058 -0.838162
v 0.055249 -0.934343 -0.056976
vn 0.042285 0.724421 0.688059
v -0.071289 0.692705 0.230273
vn 0.169275 0.758300 -0.629546
v -0.036704 0.723327 -0.069796
vn -0.093647 0.872445 0.479655
v 0.311836 0.435251 -0.317402
vn -0.980567 -0.091812 0.173374
v -0.336696 0.498905 0.198727
vn 0.677057 -0.057884 -0.733650
v 0.070268 -0.376688 -0.054925
vn 0.830373 0.371574 0.415227
v 0.608098 0.459274 0.060814
vn -0.751060 -0.589543 0.297233
v 0.069355 0.114543 0.159119
vn 0.946386 0.008067 0.322938
v 0.107597 -0.529369 0.038985
vn -0.852411 0.109746 -0.511225
v 0.064238 0.192705 -0.162500
vn 0.993533 -0.097549 -0.058106
v 0.239703 0.169366 0.258035
vn -0.733584 0.606206 0.307195
v -0.261129 0.676135 0.125469
vn 0.877657 -0.474456 -0.067896
v 0.221339 0.182652 0.185884
vn -0.741714 -0.580593 0.335815
v 0.105299 0.049839 0.278606
vn 0.408320 -0.911214 0.054443
v 0.255645 0.049304 0.345225
vn 0.957414 -0.156701 0.242494
v 0.266627 0.158281 -0.061745
vn -0.584853 -0.319403 -0.745606
v 0.017062 0.260535 -0.062687
vn 0.974447 -0.214985 0.065065
v 0.145907 -0.069184 -0.039809
vn 0.826173 -0.018895 -0.563099
v 0.087432 -0.885016 -0.025788
vn 0.974603 0.203465 -0.093547
v 0.425475 0.462718 0.285135
vn 0.784700 -0.608229 -0.119597
v 0.221817 0.057295 -0.061585
vn -0.655608 0.213247 -0.724365
v 0.328183 0.190201 0.335320
vn -0.290641 -0.888929 0.354023
v -0.096398 0.232249 0.130713
vn 0.665611 0.368483 0.648986
v 0.488958 0.445370 -0.421848
vn -0.048634 -0.824685 -0.563497
v 0.508781 0.339722 0.142215
vn 0.133149 0.856661 0.498400
v -0.113287 0.809067 0.098475
vn 0.232733 -0.882505 0.408681
v 0.049992 -0.963718 0.100769
vn 0.976448 -0.196275 -0.089590
v 0.642345 0.479117 -0.109212
vn -0.039835 0.892138 0.450004
v 0.530998 0.444512 0.132774
vn 0.312494 0.570699 -0.759375
v 0.258769 0.133806 0.328905
vn 0.040632 -0.788833 -0.613263
v 0.196522 0.122700 -0.194503
vn -0.914830 -0.300218 -0.270101
v -0.324459 0.390717 0.049487
vn -0.327837 -0.866151 -0.377233
v -0.067303 0.233131 0.060576
vn -0.657504 -0.753132 0.021931
v -0.105282 -0.969295 0.035507
vn -0.099853 -0.019318 -0.994815
v -0.026107 -0.455722 -0.087869
vn 0.477067 0.600350 0.641862
v 0.513893 0.351751 0.295363
vn -0.100752 -0.753337 0.649871
v 0.277976 0.330365 0.393832
vn 0.272763 0.960529 0.054620
v 0.166279 0.719813 0.007913
vn 0.641747 -0.765408 0.048089
v 0.400501 0.258226 -0.360846
vn 0.079224 -0.919484 0.385062
v 0.257260 0.272636 0.257174
vn -0.815927 -0.498996 0.292003
v -0.299484 0.384523 0.240805
vn 0.390994 -0.016089 0.920253
v 0.006860 -0.870206 0.128649
vn 0.582847 0.809333 0.072588
v 0.315498 0.534879 0.237348
vn -0.268959 0.700780 0.660734
v -0.184991 0.669221 0.229321
vn -0.752254 0.655120 -0.070228
v -0.224005 0.800951 0.007688
vn -0.523845 0.692999 0.495318
v 0.184978 0.134094 0.353464
vn -0.436445 0.004459 0.899720
v -0.058012 -0.755815 0.137446
vn 0.823058 -0.008255 0.567898
v 0.256155 0.249894 0.223827
vn -0.894957 0.413881 0.166596
v -0.316130 0.575960 0.220801
vn -0.004039 0.853055 0.521806
v 0.179100 0.301454 -0.141186
vn -0.014873 -0.367018 -0.930095
v 0.096231 0.055088 -0.138210
vn -0.776155 0.125606 -0.617905
v 0.016166 0.080311 -0.094721
vn -0.599211 0.792831 0.111194
v 0.416952 0.535737 -0.567610
vn -0.977582 -0.004140 0.210515
v -0.110083 -0.440616 0.050497
vn -0.304553 -0.381950 0.872560
v 0.001651 0.357868 0.309056
vn 0.929389 -0.126238 0.346842
v 0.582693 0.501681 -0.580425
vn -0.563743 -0.409362 -0.717368
v -0.250275 0.338166 -0.028767
vn -0.522126 -0.849933 -0.070698
v -0.225478 0.257957 0.088474
vn 0.236801 0.887672 0.394923
v 0.060938 0.696088 0.185921
vn -0.802405 0.062439 -0.593504
v 0.431604 0.433027 -0.664702
vn -0.371022 -0.096887 0.923556
v 0.076026 0.065349 0.084673
vn -0.893581 -0.034093 -0.447605
v -0.102827 -0.891687 -0.032654
vn 0.784402 0.613460 0.091540
v 0.234226 0.236243 -0.041636
vn 0.878891 -0.424327 -0.217938
v 0.651473 0.542442 -0.734213
vn -0.176425 -0.722472 0.668512
v -0.059261 0.297940 0.247143
vn -0.593470 0.772811 0.224848
v 0.316568 0.205965 0.392427
vn -0.156989 -0.049352 -0.986366
v 0.035639 -0.069646 -0.109245
vn -0.625646 -0.026985 -0.779640
v -0.205247 0.544884 -0.099037
vn -0.274718 -0.483401 -0.831176
v 0.454368 0.279504 0.235075
vn -0.825245 0.176623 -0.536447
v -0.054168 -0.017910 -0.062519
vn 0.756826 -0.022930 -0.653214
v 0.225018 0.305506 -0.016371
vn 0.943121 -0.310009 -0.120076
v 0.241687 0.233602 0.052862
vn 0.648028 -0.379343 -0.660423
v 0.290237 0.089518 0.326084
vn -0.771274 0.631284 0.081348
v 0.546261 0.494008 0.005624
vn -0.466797 -0.457703 -0.756709
v 0.080758 0.129080 -0.159472
vn -0.299729 0.609854 0.733649
v -0.267073 0.604978 0.284633
vn 0.816872 -0.279867 0.504376
v 0.131504 -0.019597 0.031593
vn 0.648969 -0.746401 0.147391
v 0.375384 0.307859 0.293664
vn -0.540564 -0.018824 -0.841092
v 0.494856 0.527894 -0.745138
vn 0.971561 -0.050683 -0.231301
v 0.104568 -0.345888 -0.002609
vn -0.794184 0.319002 0.517213
v -0.047742 -0.001315 0.039874
vn 0.885768 0.463758 0.018549
v 0.257131 0.580795 0.082912
vn 0.378600 0.913575 0.148467
v 0.608956 0.548572 -0.081675
vn -0.220744 0.199475 -0.954716
v -0.136868 0.623847 -0.131002
vn -0.018078 0.972057 0.234050
v 0.561542 0.679359 -0.720510
vn -0.270064 -0.632477 0.725974
v 0.031819 0.216128 0.191894
vn 0.771944 -0.154225 0.616699
v 0.501283 0.266258 0.341992
vn 0.033739 -0.477894 -0.877769
v 0.513248 0.439174 -0.738781
vn 0.853090 -0.453238 0.258482
v 0.202065 0.136919 0.078052
vn -0.756411 -0.225200 -0.614107
v 0.266206 0.343425 -0.451458
vn 0.045474 0.003301 0.998960
v -0.022266 -0.491172 0.138671
vn 0.708527 -0.689097 -0.152098
v 0.090459 -0.963037 -0.003590
vn -0.947942 0.211661 0.237920
v -0.086749 -0.165131 0.031489
vn -0.138368 -0.165412 0.976470
v 0.142045 0.423826 0.378782
vn 0.015737 0.357463 0.933795
v 0.285160 0.392175 0.420041
vn 0.604414 -0.714089 0.353214
v 0.401184 0.138720 0.383171
vn 0.770287 0.439380 -0.462172
v 0.251080 0.670026 -0.008413
vn 0.830096 -0.188795 -0.524687
v 0.287685 0.393156 0.012669
vn -0.448148 0.228542 0.864252
v -0.023011 -0.106852 0.088370
vn 0.876778 0.173473 -0.448517
v 0.249311 0.536978 -0.031532
vn -0.625370 -0.355184 -0.694807
v 0.196816 0.250101 -0.334168
vn 0.375525 0.666629 0.643885
v 0.379526 0.495539 0.349459
vn 0.133248 0.767839 -0.626633
v 0.127259 0.298609 -0.103091
vn 0.505460 -0.231067 -0.831336
v 0.119660 -0.064434 -0.085051
vn 0.686709 0.366829 0.627589
v 0.280491 0.255931 -0.141509
vn 0.499881 0.608841 0.615980
v 0.568154 0.589563 -0.593051
vn -0.437087 -0.186054 -0.879965
v -0.062426 -0.960497 -0.076117
vn -0.638911 0.009872 -0.769218
v -0.072392 -0.357368 -0.070943
vn 0.821455 -0.157248 0.548164
v 0.357577 0.280161 -0.219483
vn -0.513576 0.702814 0.492231
v -0.186824 0.793169 0.096620
vn 0.189339 0.934112 -0.302629
v -0.151692 0.827344 0.024294
vn -0.318855 -0.749060 -0.580725
v 0.405026 0.347659 -0.606771
vn -0.059679 -0.395173 -0.916666
v -0.000747 0.397867 -0.122445
vn -0.256090 -0.401675 0.879247
v -0.252657 0.416687 0.319362
vn -0.936478 -0.038654 0.348589
v -0.100390 -0.938484 0.063914
vn -0.833840 -0.028463 0.551273
v -0.077772 -0.885863 0.112406
vn 0.296003 0.749616 -0.591996
v 0.102185 0.713622 -0.071731
vn -0.919613 0.294408 -0.260067
v -0.276348 0.660811 0.040179
vn 0.323616 0.945308 -0.040807
v -0.020510 0.765453 0.047569
vn 0.873694 -0.424140 0.238252
v 0.524391 0.360817 -0.470626
vn 0.750620 -0.660728 -0.002827
v 0.281091 0.161745 -0.193589
vn 0.713090 -0.238542 0.659243
v 0.378337 0.368596 0.374976
vn -0.893854 0.233771 -0.382592
v 0.427382 0.548681 -0.604587
vn -0.999696 -0.017613 -0.017233
v -0.112712 -0.666482 0.018562
vn 0.997118 -0.033509 -0.068065
v 0.106010 -0.910868 0.013952
vn -0.795310 -0.592108 0.129964
v -0.001802 0.168317 0.084205
vn -0.754604 -0.509684 -0.413274
v 0.551676 0.475563 -0.062736
vn 0.614394 -0.192561 -0.765141
v 0.174797 0.490909 -0.156071
vn 0.434061 0.029844 0.900389
v 0.072330 -0.123297 0.110862
vn -0.475059 0.027775 -0.879515
v -0.033245 -0.224068 -0.090146
vn 0.609549 -0.757297 -0.234418
v 0.522131 0.361877 -0.621624
vn 0.014267 0.442948 -0.896434
v 0.032481 0.656529 -0.140328
vn 0.573265 0.758057 0.310992
v 0.214519 0.695844 0.111638
vn 0.282355 0.627422 0.725684
v 0.220312 0.549036 0.300804
vn -0.767303 0.165924 -0.619448
v -0.231293 0.742579 -0.054190
vn -0.653871 0.754566 -0.055528
v 0.255503 0.424996 -0.397443
vn 0.936906 0.172797 -0.303888
v 0.313325 0.473863 0.104639
vn 0.127471 0.220536 0.967013
v 0.417272 0.226497 0.409242
vn -0.984642 0.173675 -0.017836
v -0.005212 0.120119 0.000325
vn -0.926604 0.171173 -0.334820
v -0.341209 0.523570 0.065936
vn 0.222520 -0.092091 -0.970569
v 0.039773 -0.219232 -0.101853
vn 0.048823 -0.703659 0.708859
v 0.222128 0.062648 0.387173
vn -0.270910 -0.771309 0.575926
v -0.198945 0.311155 0.247110
vn 0.968229 -0.070472 0.239930
v 0.556378 0.376457 0.186424
vn -0.784458 0.533355 -0.316477
v 0.549281 0.530773 -0.180543
vn 0.779325 -0.618999 -0.097433
v 0.557921 0.434730 -0.669771
vn 0.827444 -0.237887 -0.508670
v 0.388934 0.358415 0.204903
vn 0.736295 -0.648509 -0.193148
v 0.298428 0.291935 0.193698
vn 0.377291 -0.033758 -0.925479
v 0.022317 -0.448003 -0.079184
vn 0.429475 -0.874182 -0.226619
v 0.593001 0.407777 0.052890
vn -0.631314 0.331372 -0.701167
v 0.470973 0.622667 -0.738045
vn -0.304191 -0.238492 -0.922274
v -0.126476 0.432788 -0.108225
vn -0.961213 0.073524 -0.265827
v -0.119079 -0.332901 -0.010965
vn 0.008289 -0.308599 0.951156
v -0.073947 0.366941 0.288761
vn 0.683935 0.349766 -0.640232
v 0.646900 0.658127 -0.745895
vn 0.814585 -0.047136 0.578126
v 0.087786 -0.329182 0.062413
vn 0.745712 -0.183060 -0.640627
v 0.106499 -0.236455 -0.066814
vn -0.096128 0.375844 0.921683
v 0.095637 0.572746 0.393585
vn -0.812090 0.555091 -0.179957
v 0.164176 0.336126 -0.250397
vn -0.367244 0.043263 0.929118
v 0.207202 0.234191 0.213464
vn -0.248056 -0.828331 -0.502330
v 0.375931 0.304302 -0.496621
vn -0.226844 0.075302 0.971016
v -0.000810 0.535830 0.309110
vn 0.888809 -0.238128 -0.391553
v 0.312146 0.364525 0.129166
vn -0.770897 0.031943 0.636159
v -0.292707 0.504155 0.294392
vn 0.784465 -0.050749 0.618093
v 0.086392 -0.922315 0.076773
vn 0.074600 -0.986897 -0.143069
v 0.026117 -0.971082 -0.025813
vn -0.390475 0.799715 0.456054
v 0.450211 0.351076 0.286193
vn 0.295715 -0.920838 -0.254185
v 0.459712 0.317678 -0.504557
vn -0.423041 0.106513 0.899828
v 0.222891 0.110867 0.413351
vn -0.045380 0.628431 0.776540
v 0.028207 0.638432 0.269431
vn 0.306205 -0.376085 -0.874528
v 0.139207 0.341039 -0.087168
vn -0.028904 -0.853909 -0.519619
v 0.285528 0.215863 -0.330432
vn -0.212261 -0.418355 0.883133
v -0.044095 -0.949778 0.134539
vn 0.722566 -0.644527 -0.249967
v 0.535106 0.270658 0.272789
vn 0.225326 -0.950579 -0.213605
v 0.204084 0.043492 0.267565
vn -0.861704 0.063915 0.503370
v -0.100471 -0.306362 0.082487
vn -0.261565 -0.667196 -0.697447
v -0.106411 0.307620 -0.076674
vn 0.061188 -0.749632 -0.659020
v 0.591619 0.471286 -0.145100
vn 0.842323 -0.240997 0.482092
v 0.456421 0.338462 -0.372701
vn -0.667685 0.358482 0.652447
v 0.085889 0.141904 0.198930
vn -0.501696 0.088233 0.860532
v -0.052559 -0.269407 0.124794
# 202 vertices, 202 vertices normals

f 184//184 93//93 119//119
f 122//122 193//193 52//52
f 141//141 200//200 60//60
f 46//46 195//195 90//90
f 42//42 98//98 39//39
f 189//189 152//152 141//141
f 29//29 35//35 201//201
f 82//82 150//150 98//98
f 58//58 116//116 115//115
f 4//4 168//168 184//184
f 140//140 47//47 80//80
f 29//29 2//2 35//35
f 191//191 21//21 80//80
f 143//143 116//116 58//58
f 129//129 3//3 174//174
f 111//111 133//133 182//182
f 46//46 19//19 148//148
f 61//61 20//20 181//181
f 97//97 191//191 65//65
f 145//145 3//3 83//83
f 61//61 181//181 69//69
f 6//6 192//192 134//134
f 87//87 51//51 67//67
f 57//57 108//108 195//195
f 85//85 176//176 77//77
f 138//138 24//24 140//140
f 149//149 192//192 6//6
f 172//172 106//106 176//176
f 52//52 193//193 142//142
f 166//166 95//95 104//104
f 77//77 141//141 152//152
f 58//58 61//61 99//99
f 195//195 165//165 57//57
f 89//89 139//139 156//156
f 181//181 20//20 107//107
f 128//128 56//56 8//8
f 142//142 60//60 130//130
f 197//197 120//120 114//114
f 120//120 197//197 202//202
f 37//37 42//42 142//142
f 125//125 162//162 88//88
f 195//195 117//117 7//7
f 73//73 96//96 72//72
f 109//109 100//100 176//176
f 169//169 168//168 99//99
f 169//169 99//99 61//61
f 13//13 111//111 157//157
f 158//158 121//121 103//103
f 97//97 33//33 70//70
f 43//43 90//90 7//7
f 41//41 99//99 168//168
f 108//108 57//57 159//159
f 55//55 48//48 194//194
f 55//55 187//187 48//48
f 141//141 60//60 189//189
f 66//66 156//156 139//139
f 140//140 24//24 132//132
f 84//84 92//92 93//93
f 171//171 148//148 199//199
f 55//55 128//128 187//187
f 54//54 79//79 198//198
f 53//53 62//62 26//26
f 87//87 190//190 159//159
f 73//73 160//160 31//31
f 135//135 164//164 175//175
f 42//42 52//52 142//142
f 61//61 69//69 169//169
f 183//183 175//175 76//76
f 48//48 187//187 113//113
f 73//73 72//72 91//91
f 51//51 7//7 94//94
f 55//55 83//83 128//128
f 50//50 104//104 95//95
f 144//144 81//81 13//13
f 16//16 105//105 156//156
f 39//39 177//177 101//101
f 98//98 177//177 39//39
f 202//202 68//68 112//112
f 33//33 97//97 65//65
f 17//17 191//191 97//97
f 87//87 19//19 43//43
f 201//201 35//35 67//67
f 35//35 2//2 196//196
f 8//8 22//22 187//187
f 20//20 115//115 76//76
f 62//62 164//164 135//135
f 117//117 108//108 159//159
f 28//28 49//49 104//104
f 188//188 19//19 87//87
f 48//48 63//63 194//194
f 130//130 45//45 15//15
f 190//190 87//87 67//67
f 101//101 30//30 146//146
f 159//159 163//163 117//117
f 59//59 118//118 138//138
f 161//161 26//26 70//70
f 65//65 47//47 131//131
f 150//150 18//18 177//177
f 162//162 178//178 27//27
f 107//107 20//20 76//76
f 144//144 74//74 12//12
f 179//179 76//76 115//115
f 60//60 193//193 189//189
f 118//118 121//121 11//11
f 85//85 77//77 167//167
f 133//133 109//109 152//152
f 98//98 2//2 82//82
f 130//130 15//15 126//126
f 68//68 194//194 63//63
f 57//57 50//50 188//188
f 111//111 180//180 157//157
f 59//59 140//140 80//80
f 44//44 164//164 79//79
f 7//7 51//51 43//43
f 88//88 91//91 72//72
f 53//53 78//78 79//79
f 189//189 193//193 182//182
f 154//154 80//80 21//21
f 86//86 164//164 44//44
f 163//163 35//35 196//196
f 4//4 184//184 158//158
f 125//125 42//42 39//39
f 127//127 106//106 12//12
f 12//12 10//10 127//127
f 83//83 55//55 145//145
f 16//16 24//24 105//105
f 164//164 86//86 175//175
f 150//150 177//177 98//98
f 176//176 127//127 77//77
f 71//71 15//15 25//25
f 71//71 180//180 14//14
f 69//69 32//32 34//34
f 104//104 199//199 166//166
f 42//42 110//110 98//98
f 53//53 89//89 78//78
f 191//191 183//183 179//179
f 40//40 22//22 27//27
f 175//175 183//183 17//17
f 135//135 175//175 17//17
f 79//79 78//78 198//198
f 74//74 13//13 157//157
f 106//106 127//127 176//176
f 98//98 110//110 2//2
f 200//200 141//141 45//45
f 179//179 115//115 155//155
f 36//36 94//94 117//117
f 102//102 82//82 160//160
f 194//194 137//137 136//136
f 55//55 194//194 136//136
f 197//197 137//137 68//68
f 174//174 91//91 151//151
f 114//114 91//91 174//174
f 93//93 37//37 84//84
f 101//101 27//27 178//178
f 190//190 163//163 159//159
f 56//56 128//128 129//129
f 111//111 81//81 133//133
f 107//107 86//86 44//44
f 60//60 142//142 193//193
f 57//57 165//165 50//50
f 47//47 132//132 131//131
f 12//12 74//74 10//10
f 129//129 174//174 151//151
f 40//40 27//27 101//101
f 129//129 151//151 56//56
f 76//76 86//86 107//107
f 159//159 57//57 188//188
f 188//188 87//87 159//159
f 156//156 105//105 89//89
f 172//172 144//144 12//12
f 134//134 38//38 198//198
f 145//145 136//136 75//75
f 23//23 47//47 65//65
f 36//36 196//196 94//94
f 42//42 125//125 72//72
f 138//138 11//11 153//153
f 189//189 182//182 133//133
f 35//35 163//163 190//190
f 16//16 66//66 132//132
f 42//42 37//37 110//110
f 185//185 135//135 17//17
f 17//17 97//97 185//185
f 161//161 89//89 53//53
f 63//63 1//1 112//112
f 34//34 93//93 169//169
f 34//34 169//169 69//69
f 91//91 102//102 160//160
f 101//101 177//177 30//30
f 33//33 66//66 139//139
f 20//20 58//58 115//115
f 64//64 21//21 155//155
f 85//85 109//109 176//176
f 30//30 186//186 146//146
f 82//82 29//29 147//147
f 160//160 147//147 38//38
f 160//160 38//38 31//31
f 36//36 117//117 163//163
f 148//148 19//19 95//95
f 131//131 132//132 66//66
f 113//113 186//186 48//48
f 75//75 197//197 174//174
f 44//44 79//79 54//54
f 198//198 38//38 54//54
f 162//162 151//151 88//88
f 173//173 89//89 6//6
f 175//175 86//86 76//76
f 64//64 103//103 21//21
f 14//14 180//180 31//31
f 46//46 148//148 171//171
f 28//28 50//50 165//165
f 62//62 53//53 79//79
f 37//37 142//142 126//126
f 32//32 5//5 34//34
f 1//1 18//18 112//112
f 126//126 15//15 71//71
f 135//135 185//185 62//62
f 185//185 26//26 62//62
f 147//147 107//107 44//44
f 121//121 158//158 119//119
f 202//202 18//18 120//120
f 143//143 123//123 116//116
f 133//133 81//81 109//109
f 46//46 171//171 165//165
f 167//167 152//152 109//109
f 150//150 82//82 120//120
f 51//51 5//5 32//32
f 144//144 13//13 74//74
f 10//10 25//25 45//45
f 10//10 45//45 127//127
f 94//94 5//5 51//51
f 85//85 167//167 109//109
f 29//29 82//82 2//2
f 54//54 38//38 147//147
f 31//31 96//96 73//73
f 138//138 153//153 24//24
f 107//107 201//201 181//181
f 52//52 42//42 72//72
f 105//105 153//153 6//6
f 23//23 191//191 80//80
f 123//123 155//155 116//116
f 25//25 15//15 45//45
f 2//2 110//110 5//5
f 134//134 192//192 38//38
f 13//13 81//81 111//111
f 147//147 160//160 82//82
f 180//180 71//71 25//25
f 22//22 40//40 113//113
f 33//33 131//131 66//66
f 173//173 198//198 78//78
f 173//173 78//78 89//89
f 136//136 137//137 197//197
f 197//197 75//75 136//136
f 153//153 105//105 24//24
f 59//59 80//80 154//154
f 23//23 65//65 191//191
f 50//50 19//19 188//188
f 165//165 195//195 46//46
f 26//26 161//161 53//53
f 14//14 31//31 38//38
f 137//137 194//194 68//68
f 71//71 14//14 124//124
f 92//92 119//119 93//93
f 65//65 131//131 33//33
f 67//67 32//32 69//69
f 69//69 181//181 67//67
f 143//143 41//41 123//123
f 92//92 84//84 124//124
f 124//124 192//192 92//92
f 113//113 40//40 146//146
f 24//24 16//16 132//132
f 201//201 67//67 181//181
f 171//171 199//199 49//49
f 119//119 149//149 121//121
f 96//96 122//122 52//52
f 11//11 138//138 118//118
f 117//117 195//195 108//108
f 113//113 187//187 22//22
f 111//111 122//122 180//180
f 174//174 145//145 75//75
f 25//25 157//157 180//180
f 168//168 169//169 184//184
f 183//183 191//191 17//17
f 49//49 199//199 104//104
f 58//58 99//99 143//143
f 139//139 161//161 70//70
f 14//14 38//38 124//124
f 156//156 66//66 16//16
f 77//77 152//152 167//167
f 31//31 180//180 122//122
f 81//81 100//100 109//109
f 123//123 64//64 155//155
f 64//64 41//41 4//4
f 58//58 20//20 61//61
f 44//44 54//54 147//147
f 43//43 51//51 87//87
f 126//126 142//142 130//130
f 134//134 173//173 6//6
f 172//172 12//12 106//106
f 162//162 170//170 56//56
f 89//89 161//161 139//139
f 27//27 22//22 170//170
f 162//162 125//125 178//178
f 132//132 47//47 140//140
f 196//196 2//2 5//5
f 45//45 130//130 200//200
f 179//179 183//183 76//76
f 47//47 23//23 80//80
f 25//25 10//10 157//157
f 145//145 55//55 136//136
f 111//111 182//182 193//193
f 93//93 110//110 37//37
f 199//199 148//148 166//166
f 152//152 189//189 133//133
f 114//114 102//102 91//91
f 95//95 19//19 50//50
f 1//1 177//177 18//18
f 9//9 177//177 1//1
f 41//41 168//168 4//4
f 192//192 124//124 38//38
f 92//92 192//192 119//119
f 192//192 149//149 119//119
f 91//91 160//160 73//73
f 9//9 30//30 177//177
f 28//28 171//171 49//49
f 89//89 105//105 6//6
f 179//179 155//155 21//21
f 114//114 174//174 197//197
f 121//121 149//149 11//11
f 121//121 118//118 103//103
f 186//186 63//63 48//48
f 186//186 9//9 63//63
f 164//164 62//62 79//79
f 29//29 201//201 107//107
f 29//29 107//107 147//147
f 120//120 18//18 150//150
f 139//139 70//70 33//33
f 170//170 22//22 8//8
f 118//118 154//154 103//103
f 148//148 95//95 166//166
f 81//81 144//144 100//100
f 94//94 7//7 117//117
f 122//122 96//96 31//31
f 77//77 127//127 45//45
f 202//202 197//197 68//68
f 173//173 134//134 198//198
f 179//179 21//21 191//191
f 4//4 103//103 64//64
f 5//5 110//110 34//34
f 52//52 72//72 96//96
f 169//169 93//93 184//184
f 115//115 116//116 155//155
f 60//60 200//200 130//130
f 170//170 8//8 56//56
f 103//103 154//154 21//21
f 36//36 163//163 196//196
f 185//185 70//70 26//26
f 185//185 97//97 70//70
f 162//162 27//27 170//170
f 119//119 158//158 184//184
f 125//125 39//39 178//178
f 149//149 6//6 11//11
f 151//151 91//91 88//88
f 153//153 11//11 6//6
f 9//9 186//186 30//30
f 158//158 103//103 4//4
f 124//124 84//84 71//71
f 193//193 122//122 111//111
f 64//64 123//123 41//41
f 19//19 90//90 43//43
f 113//113 146//146 186//186
f 101//101 178//178 39//39
f 190//190 67//67 35//35
f 51//51 32//32 67//67
f 90//90 19//19 46//46
f 56//56 151//151 162//162
f 129//129 128//128 83//83
f 3//3 129//129 83//83
f 100//100 144//144 172//172
f 120//120 102//102 114//114
f 40//40 101//101 146//146
f 165//165 171//171 28//28
f 102//102 120//120 82//82
f 126//126 84//84 37//37
f 90//90 195//195 7//7
f 143//143 99//99 41//41
f 88//88 72//72 125//125
f 8//8 187//187 128//128
f 68//68 63//63 112//112
f 196//196 5//5 94//94
f 74//74 157//157 10//10
f 138//138 140//140 59//59
f 145//145 174//174 3//3
f 28//28 104//104 50//50
f 176//176 100//100 172//172
f 59//59 154//154 118//118
f 77//77 45//45 141//141
f 112//112 18//18 202//202
f 1//1 63//63 9//9
f 110//110 93//93 34//34
f 126//126 71//71 84//84
# 400 faces, 0 coords texture

# End of File