v 0 0 1
v 0.1 0 1
v 0.2 0 1
v 0.3 0 1
v 0.4 0 1
v 0.5 0 1
v 0.6 0 1
v 0.7 0 1
v 0.8 0 1
v 0.9 0 1
v 1 0 1
v 0 0.309016994374947 0.951056516295154
v 0.1 0.309016994374947 0.951056516295154
v 0.2 0.309016994374947 0.951056516295154
v 0.3 0.309016994374947 0.951056516295154
v 0.4 0.309016994374947 0.951056516295154
v 0.5 0.309016994374947 0.951056516295154
v 0.6 0.309016994374947 0.951056516295154
v 0.7 0.309016994374947 0.951056516295154
v 0.8 0.309016994374947 0.951056516295154
v 0.9 0.309016994374947 0.951056516295154
v 1 0.309016994374947 0.951056516295154
v 0 0.587785252292473 0.809016994374947
v 0.1 0.587785252292473 0.809016994374947
v 0.2 0.587785252292473 0.809016994374947
v 0.3 0.587785252292473 0.809016994374947
v 0.4 0.587785252292473 0.809016994374947
v 0.5 0.587785252292473 0.809016994374947
v 0.6 0.587785252292473 0.809016994374947
v 0.7 0.587785252292473 0.809016994374947
v 0.8 0.587785252292473 0.809016994374947
v 0.9 0.587785252292473 0.809016994374947
v 1 0.587785252292473 0.809016994374947
v 0 0.809016994374947 0.587785252292473
v 0.1 0.809016994374947 0.587785252292473
v 0.2 0.809016994374947 0.587785252292473
v 0.3 0.809016994374947 0.587785252292473
v 0.4 0.809016994374947 0.587785252292473
v 0.5 0.809016994374947 0.587785252292473
v 0.6 0.809016994374947 0.587785252292473
v 0.7 0.809016994374947 0.587785252292473
v 0.8 0.809016994374947 0.587785252292473
v 0.9 0.809016994374947 0.587785252292473
v 1 0.809016994374947 0.587785252292473
v 0 0.951056516295154 0.309016994374947
v 0.1 0.951056516295154 0.309016994374947
v 0.2 0.951056516295154 0.309016994374947
v 0.3 0.951056516295154 0.309016994374947
v 0.4 0.951056516295154 0.309016994374947
v 0.5 0.951056516295154 0.309016994374947
v 0.6 0.951056516295154 0.309016994374947
v 0.7 0.951056516295154 0.309016994374947
v 0.8 0.951056516295154 0.309016994374947
v 0.9 0.951056516295154 0.309016994374947
v 1 0.951056516295154 0.309016994374947
v 0 1 6.12323399573677e-17
v 0.1 1 6.12323399573677e-17
v 0.2 1 6.12323399573677e-17
v 0.3 1 6.12323399573677e-17
v 0.4 1 6.12323399573677e-17
v 0.5 1 6.12323399573677e-17
v 0.6 1 6.12323399573677e-17
v 0.7 1 6.12323399573677e-17
v 0.8 1 6.12323399573677e-17
v 0.9 1 6.12323399573677e-17
v 1 1 6.12323399573677e-17
v 0 0.951056516295154 -0.309016994374948
v 0.1 0.951056516295154 -0.309016994374948
v 0.2 0.951056516295154 -0.309016994374948
v 0.3 0.951056516295154 -0.309016994374948
v 0.4 0.951056516295154 -0.309016994374948
v 0.5 0.951056516295154 -0.309016994374948
v 0.6 0.951056516295154 -0.309016994374948
v 0.7 0.951056516295154 -0.309016994374948
v 0.8 0.951056516295154 -0.309016994374948
v 0.9 0.951056516295154 -0.309016994374948
v 1 0.951056516295154 -0.309016994374948
v 0 0.809016994374947 -0.587785252292473
v 0.1 0.809016994374947 -0.587785252292473
v 0.2 0.809016994374947 -0.587785252292473
v 0.3 0.809016994374947 -0.587785252292473
v 0.4 0.809016994374947 -0.587785252292473
v 0.5 0.809016994374947 -0.587785252292473
v 0.6 0.809016994374947 -0.587785252292473
v 0.7 0.809016994374947 -0.587785252292473
v 0.8 0.809016994374947 -0.587785252292473
v 0.9 0.809016994374947 -0.587785252292473
v 1 0.809016994374947 -0.587785252292473
v 0 0.587785252292473 -0.809016994374947
v 0.1 0.587785252292473 -0.809016994374947
v 0.2 0.587785252292473 -0.809016994374947
v 0.3 0.587785252292473 -0.809016994374947
v 0.4 0.587785252292473 -0.809016994374947
v 0.5 0.587785252292473 -0.809016994374947
v 0.6 0.587785252292473 -0.809016994374947
v 0.7 0.587785252292473 -0.809016994374947
v 0.8 0.587785252292473 -0.809016994374947
v 0.9 0.587785252292473 -0.809016994374947
v 1 0.587785252292473 -0.809016994374947
v 0 0.309016994374948 -0.951056516295154
v 0.1 0.309016994374948 -0.951056516295154
v 0.2 0.309016994374948 -0.951056516295154
v 0.3 0.309016994374948 -0.951056516295154
v 0.4 0.309016994374948 -0.951056516295154
v 0.5 0.309016994374948 -0.951056516295154
v 0.6 0.309016994374948 -0.951056516295154
v 0.7 0.309016994374948 -0.951056516295154
v 0.8 0.309016994374948 -0.951056516295154
v 0.9 0.309016994374948 -0.951056516295154
v 1 0.309016994374948 -0.951056516295154
v 0 1.22464679914735e-16 -1
v 0.1 1.22464679914735e-16 -1
v 0.2 1.22464679914735e-16 -1
v 0.3 1.22464679914735e-16 -1
v 0.4 1.22464679914735e-16 -1
v 0.5 1.22464679914735e-16 -1
v 0.6 1.22464679914735e-16 -1
v 0.7 1.22464679914735e-16 -1
v 0.8 1.22464679914735e-16 -1
v 0.9 1.22464679914735e-16 -1
v 1 1.22464679914735e-16 -1
vn 0 0 1
vn 0 0 1
vn 0 0 1
vn 0 0 1
vn 0 0 1
vn 0 0 1
vn 0 0 1
vn 0 0 1
vn 0 0 1
vn 0 0 1
vn 0 0 1
vn 0 0.309016994374947 0.951056516295154
vn 0 0.309016994374947 0.951056516295154
vn 0 0.309016994374947 0.951056516295154
vn 0 0.309016994374947 0.951056516295154
vn 0 0.309016994374947 0.951056516295154
vn 0 0.309016994374947 0.951056516295154
vn 0 0.309016994374947 0.951056516295154
vn 0 0.309016994374947 0.951056516295154
vn 0 0.309016994374947 0.951056516295154
vn 0 0.309016994374947 0.951056516295154
vn 0 0.309016994374947 0.951056516295154
vn 0 0.587785252292473 0.809016994374947
vn 0 0.587785252292473 0.809016994374947
vn 0 0.587785252292473 0.809016994374947
vn 0 0.587785252292473 0.809016994374947
vn 0 0.587785252292473 0.809016994374947
vn 0 0.587785252292473 0.809016994374947
vn 0 0.587785252292473 0.809016994374947
vn 0 0.587785252292473 0.809016994374947
vn 0 0.587785252292473 0.809016994374947
vn 0 0.587785252292473 0.809016994374947
vn 0 0.587785252292473 0.809016994374947
vn 0 0.809016994374947 0.587785252292473
vn 0 0.809016994374947 0.587785252292473
vn 0 0.809016994374947 0.587785252292473
vn 0 0.809016994374947 0.587785252292473
vn 0 0.809016994374947 0.587785252292473
vn 0 0.809016994374947 0.587785252292473
vn 0 0.809016994374947 0.587785252292473
vn 0 0.809016994374947 0.587785252292473
vn 0 0.809016994374947 0.587785252292473
vn 0 0.809016994374947 0.587785252292473
vn 0 0.809016994374947 0.587785252292473
vn 0 0.951056516295154 0.309016994374947
vn 0 0.951056516295154 0.309016994374947
vn 0 0.951056516295154 0.309016994374947
vn 0 0.951056516295154 0.309016994374947
vn 0 0.951056516295154 0.309016994374947
vn 0 0.951056516295154 0.309016994374947
vn 0 0.951056516295154 0.309016994374947
vn 0 0.951056516295154 0.309016994374947
vn 0 0.951056516295154 0.309016994374947
vn 0 0.951056516295154 0.309016994374947
vn 0 0.951056516295154 0.309016994374947
vn 0 1 6.12323399573677e-17
vn 0 1 6.12323399573677e-17
vn 0 1 6.12323399573677e-17
vn 0 1 6.12323399573677e-17
vn 0 1 6.12323399573677e-17
vn 0 1 6.12323399573677e-17
vn 0 1 6.12323399573677e-17
vn 0 1 6.12323399573677e-17
vn 0 1 6.12323399573677e-17
vn 0 1 6.12323399573677e-17
vn 0 1 6.12323399573677e-17
vn 0 0.951056516295154 -0.309016994374948
vn 0 0.951056516295154 -0.309016994374948
vn 0 0.951056516295154 -0.309016994374948
vn 0 0.951056516295154 -0.309016994374948
vn 0 0.951056516295154 -0.309016994374948
vn 0 0.951056516295154 -0.309016994374948
vn 0 0.951056516295154 -0.309016994374948
vn 0 0.951056516295154 -0.309016994374948
vn 0 0.951056516295154 -0.309016994374948
vn 0 0.951056516295154 -0.309016994374948
vn 0 0.951056516295154 -0.309016994374948
vn 0 0.809016994374947 -0.587785252292473
vn 0 0.809016994374947 -0.587785252292473
vn 0 0.809016994374947 -0.587785252292473
vn 0 0.809016994374947 -0.587785252292473
vn 0 0.809016994374947 -0.587785252292473
vn 0 0.809016994374947 -0.587785252292473
vn 0 0.809016994374947 -0.587785252292473
vn 0 0.809016994374947 -0.587785252292473
vn 0 0.809016994374947 -0.587785252292473
vn 0 0.809016994374947 -0.587785252292473
vn 0 0.809016994374947 -0.587785252292473
vn 0 0.587785252292473 -0.809016994374947
vn 0 0.587785252292473 -0.809016994374947
vn 0 0.587785252292473 -0.809016994374947
vn 0 0.587785252292473 -0.809016994374947
vn 0 0.587785252292473 -0.809016994374947
vn 0 0.587785252292473 -0.809016994374947
vn 0 0.587785252292473 -0.809016994374947
vn 0 0.587785252292473 -0.809016994374947
vn 0 0.587785252292473 -0.809016994374947
vn 0 0.587785252292473 -0.809016994374947
vn 0 0.587785252292473 -0.809016994374947
vn 0 0.309016994374948 -0.951056516295154
vn 0 0.309016994374948 -0.951056516295154
vn 0 0.309016994374948 -0.951056516295154
vn 0 0.309016994374948 -0.951056516295154
vn 0 0.309016994374948 -0.951056516295154
vn 0 0.309016994374948 -0.951056516295154
vn 0 0.309016994374948 -0.951056516295154
vn 0 0.309016994374948 -0.951056516295154
vn 0 0.309016994374948 -0.951056516295154
vn 0 0.309016994374948 -0.951056516295154
vn 0 0.309016994374948 -0.951056516295154
vn 0 1.22464679914735e-16 -1
vn 0 1.22464679914735e-16 -1
vn 0 1.22464679914735e-16 -1
vn 0 1.22464679914735e-16 -1
vn 0 1.22464679914735e-16 -1
vn 0 1.22464679914735e-16 -1
vn 0 1.22464679914735e-16 -1
vn 0 1.22464679914735e-16 -1
vn 0 1.22464679914735e-16 -1
vn 0 1.22464679914735e-16 -1
vn 0 1.22464679914735e-16 -1
f 2//2 13//13 1//1
f 12//12 1//1 13//13
f 2//2 3//3 13//13
f 14//14 13//13 3//3
f 4//4 15//15 3//3
f 14//14 3//3 15//15
f 4//4 5//5 15//15
f 16//16 15//15 5//5
f 6//6 17//17 5//5
f 16//16 5//5 17//17
f 6//6 7//7 17//17
f 18//18 17//17 7//7
f 8//8 19//19 7//7
f 18//18 7//7 19//19
f 8//8 9//9 19//19
f 20//20 19//19 9//9
f 10//10 21//21 9//9
f 20//20 9//9 21//21
f 10//10 11//11 21//21
f 22//22 21//21 11//11
f 12//12 13//13 23//23
f 24//24 23//23 13//13
f 14//14 25//25 13//13
f 24//24 13//13 25//25
f 14//14 15//15 25//25
f 26//26 25//25 15//15
f 16//16 27//27 15//15
f 26//26 15//15 27//27
f 16//16 17//17 27//27
f 28//28 27//27 17//17
f 18//18 29//29 17//17
f 28//28 17//17 29//29
f 18//18 19//19 29//29
f 30//30 29//29 19//19
f 20//20 31//31 19//19
f 30//30 19//19 31//31
f 20//20 21//21 31//31
f 32//32 31//31 21//21
f 22//22 33//33 21//21
f 32//32 21//21 33//33
f 24//24 35//35 23//23
f 34//34 23//23 35//35
f 24//24 25//25 35//35
f 36//36 35//35 25//25
f 26//26 37//37 25//25
f 36//36 25//25 37//37
f 26//26 27//27 37//37
f 38//38 37//37 27//27
f 28//28 39//39 27//27
f 38//38 27//27 39//39
f 28//28 29//29 39//39
f 40//40 39//39 29//29
f 30//30 41//41 29//29
f 40//40 29//29 41//41
f 30//30 31//31 41//41
f 42//42 41//41 31//31
f 32//32 43//43 31//31
f 42//42 31//31 43//43
f 32//32 33//33 43//43
f 44//44 43//43 33//33
f 34//34 35//35 45//45
f 46//46 45//45 35//35
f 36//36 47//47 35//35
f 46//46 35//35 47//47
f 36//36 37//37 47//47
f 48//48 47//47 37//37
f 38//38 49//49 37//37
f 48//48 37//37 49//49
f 38//38 39//39 49//49
f 50//50 49//49 39//39
f 40//40 51//51 39//39
f 50//50 39//39 51//51
f 40//40 41//41 51//51
f 52//52 51//51 41//41
f 42//42 53//53 41//41
f 52//52 41//41 53//53
f 42//42 43//43 53//53
f 54//54 53//53 43//43
f 44//44 55//55 43//43
f 54//54 43//43 55//55
f 46//46 57//57 45//45
f 56//56 45//45 57//57
f 46//46 47//47 57//57
f 58//58 57//57 47//47
f 48//48 59//59 47//47
f 58//58 47//47 59//59
f 48//48 49//49 59//59
f 60//60 59//59 49//49
f 50//50 61//61 49//49
f 60//60 49//49 61//61
f 50//50 51//51 61//61
f 62//62 61//61 51//51
f 52//52 63//63 51//51
f 62//62 51//51 63//63
f 52//52 53//53 63//63
f 64//64 63//63 53//53
f 54//54 65//65 53//53
f 64//64 53//53 65//65
f 54//54 55//55 65//65
f 66//66 65//65 55//55
f 56//56 57//57 67//67
f 68//68 67//67 57//57
f 58//58 69//69 57//57
f 68//68 57//57 69//69
f 58//58 59//59 69//69
f 70//70 69//69 59//59
f 60//60 71//71 59//59
f 70//70 59//59 71//71
f 60//60 61//61 71//71
f 72//72 71//71 61//61
f 62//62 73//73 61//61
f 72//72 61//61 73//73
f 62//62 63//63 73//73
f 74//74 73//73 63//63
f 64//64 75//75 63//63
f 74//74 63//63 75//75
f 64//64 65//65 75//75
f 76//76 75//75 65//65
f 66//66 77//77 65//65
f 76//76 65//65 77//77
f 68//68 79//79 67//67
f 78//78 67//67 79//79
f 68//68 69//69 79//79
f 80//80 79//79 69//69
f 70//70 81//81 69//69
f 80//80 69//69 81//81
f 70//70 71//71 81//81
f 82//82 81//81 71//71
f 72//72 83//83 71//71
f 82//82 71//71 83//83
f 72//72 73//73 83//83
f 84//84 83//83 73//73
f 74//74 85//85 73//73
f 84//84 73//73 85//85
f 74//74 75//75 85//85
f 86//86 85//85 75//75
f 76//76 87//87 75//75
f 86//86 75//75 87//87
f 76//76 77//77 87//87
f 88//88 87//87 77//77
f 78//78 79//79 89//89
f 90//90 89//89 79//79
f 80//80 91//91 79//79
f 90//90 79//79 91//91
f 80//80 81//81 91//91
f 92//92 91//91 81//81
f 82//82 93//93 81//81
f 92//92 81//81 93//93
f 82//82 83//83 93//93
f 94//94 93//93 83//83
f 84//84 95//95 83//83
f 94//94 83//83 95//95
f 84//84 85//85 95//95
f 96//96 95//95 85//85
f 86//86 97//97 85//85
f 96//96 85//85 97//97
f 86//86 87//87 97//97
f 98//98 97//97 87//87
f 88//88 99//99 87//87
f 98//98 87//87 99//99
f 90//90 101//101 89//89
f 100//100 89//89 101//101
f 90//90 91//91 101//101
f 102//102 101//101 91//91
f 92//92 103//103 91//91
f 102//102 91//91 103//103
f 92//92 93//93 103//103
f 104//104 103//103 93//93
f 94//94 105//105 93//93
f 104//104 93//93 105//105
f 94//94 95//95 105//105
f 106//106 105//105 95//95
f 96//96 107//107 95//95
f 106//106 95//95 107//107
f 96//96 97//97 107//107
f 108//108 107//107 97//97
f 98//98 109//109 97//97
f 108//108 97//97 109//109
f 98//98 99//99 109//109
f 110//110 109//109 99//99
f 100//100 101//101 111//111
f 112//112 111//111 101//101
f 102//102 113//113 101//101
f 112//112 101//101 113//113
f 102//102 103//103 113//113
f 114//114 113//113 103//103
f 104//104 115//115 103//103
f 114//114 103//103 115//115
f 104//104 105//105 115//115
f 116//116 115//115 105//105
f 106//106 117//117 105//105
f 116//116 105//105 117//117
f 106//106 107//107 117//117
f 118//118 117//117 107//107
f 108//108 119//119 107//107
f 118//118 107//107 119//119
f 108//108 109//109 119//119
f 120//120 119//119 109//109
f 110//110 121//121 109//109
f 120//120 109//109 121//121
