v 0.00000000 0.00000000 1.00000000
v 0.30901699 0.00000000 0.95105652
v 0.58778525 0.00000000 0.80901699
v 0.80901699 0.00000000 0.58778525
v 0.95105652 0.00000000 0.30901699
v 1.00000000 0.00000000 0.00000000
v 0.95105652 0.00000000 -0.30901699
v 0.80901699 0.00000000 -0.58778525
v 0.58778525 0.00000000 -0.80901699
v 0.30901699 0.00000000 -0.95105652
v 0.00000000 0.00000000 -1.00000000
v 0.25000000 0.18163563 0.95105652
v 0.47552826 0.34549150 0.80901699
v 0.65450850 0.47552826 0.58778525
v 0.76942088 0.55901699 0.30901699
v 0.80901699 0.58778525 0.00000000
v 0.76942088 0.55901699 -0.30901699
v 0.65450850 0.47552826 -0.58778525
v 0.47552826 0.34549150 -0.80901699
v 0.25000000 0.18163563 -0.95105652
v 0.09549150 0.29389263 0.95105652
v 0.18163563 0.55901699 0.80901699
v 0.25000000 0.76942088 0.58778525
v 0.29389263 0.90450850 0.30901699
v 0.30901699 0.95105652 0.00000000
v 0.29389263 0.90450850 -0.30901699
v 0.25000000 0.76942088 -0.58778525
v 0.18163563 0.55901699 -0.80901699
v 0.09549150 0.29389263 -0.95105652
v -0.09549150 0.29389263 0.95105652
v -0.18163563 0.55901699 0.80901699
v -0.25000000 0.76942088 0.58778525
v -0.29389263 0.90450850 0.30901699
v -0.30901699 0.95105652 0.00000000
v -0.29389263 0.90450850 -0.30901699
v -0.25000000 0.76942088 -0.58778525
v -0.18163563 0.55901699 -0.80901699
v -0.09549150 0.29389263 -0.95105652
v -0.25000000 0.18163563 0.95105652
v -0.47552826 0.34549150 0.80901699
v -0.65450850 0.47552826 0.58778525
v -0.76942088 0.55901699 0.30901699
v -0.80901699 0.58778525 0.00000000
v -0.76942088 0.55901699 -0.30901699
v -0.65450850 0.47552826 -0.58778525
v -0.47552826 0.34549150 -0.80901699
v -0.25000000 0.18163563 -0.95105652
v -0.30901699 0.00000000 0.95105652
v -0.58778525 0.00000000 0.80901699
v -0.80901699 0.00000000 0.58778525
v -0.95105652 0.00000000 0.30901699
v -1.00000000 0.00000000 0.00000000
v -0.95105652 0.00000000 -0.30901699
v -0.80901699 0.00000000 -0.58778525
v -0.58778525 0.00000000 -0.80901699
v -0.30901699 0.00000000 -0.95105652
v -0.25000000 -0.18163563 0.95105652
v -0.47552826 -0.34549150 0.80901699
v -0.65450850 -0.47552826 0.58778525
v -0.76942088 -0.55901699 0.30901699
v -0.80901699 -0.58778525 0.00000000
v -0.76942088 -0.55901699 -0.30901699
v -0.65450850 -0.47552826 -0.58778525
v -0.47552826 -0.34549150 -0.80901699
v -0.25000000 -0.18163563 -0.95105652
v -0.09549150 -0.29389263 0.95105652
v -0.18163563 -0.55901699 0.80901699
v -0.25000000 -0.76942088 0.58778525
v -0.29389263 -0.90450850 0.30901699
v -0.30901699 -0.95105652 0.00000000
v -0.29389263 -0.90450850 -0.30901699
v -0.25000000 -0.76942088 -0.58778525
v -0.18163563 -0.55901699 -0.80901699
v -0.09549150 -0.29389263 -0.95105652
v 0.09549150 -0.29389263 0.95105652
v 0.18163563 -0.55901699 0.80901699
v 0.25000000 -0.76942088 0.58778525
v 0.29389263 -0.90450850 0.30901699
v 0.30901699 -0.95105652 0.00000000
v 0.29389263 -0.90450850 -0.30901699
v 0.25000000 -0.76942088 -0.58778525
v 0.18163563 -0.55901699 -0.80901699
v 0.09549150 -0.29389263 -0.95105652
v 0.25000000 -0.18163563 0.95105652
v 0.47552826 -0.34549150 0.80901699
v 0.65450850 -0.47552826 0.58778525
v 0.76942088 -0.55901699 0.30901699
v 0.80901699 -0.58778525 0.00000000
v 0.76942088 -0.55901699 -0.30901699
v 0.65450850 -0.47552826 -0.58778525
v 0.47552826 -0.34549150 -0.80901699
v 0.25000000 -0.18163563 -0.95105652
vn 0.00000000 0.00000000 1.00000000
vn 0.30901699 0.00000000 0.95105652
vn 0.58778525 0.00000000 0.80901699
vn 0.80901699 0.00000000 0.58778525
vn 0.95105652 0.00000000 0.30901699
vn 1.00000000 0.00000000 0.00000000
vn 0.95105652 0.00000000 -0.30901699
vn 0.80901699 0.00000000 -0.58778525
vn 0.58778525 0.00000000 -0.80901699
vn 0.30901699 0.00000000 -0.95105652
vn 0.00000000 0.00000000 -1.00000000
vn 0.25000000 0.18163563 0.95105652
vn 0.47552826 0.34549150 0.80901699
vn 0.65450850 0.47552826 0.58778525
vn 0.76942088 0.55901699 0.30901699
vn 0.80901699 0.58778525 0.00000000
vn 0.76942088 0.55901699 -0.30901699
vn 0.65450850 0.47552826 -0.58778525
vn 0.47552826 0.34549150 -0.80901699
vn 0.25000000 0.18163563 -0.95105652
vn 0.09549150 0.29389263 0.95105652
vn 0.18163563 0.55901699 0.80901699
vn 0.25000000 0.76942088 0.58778525
vn 0.29389263 0.90450850 0.30901699
vn 0.30901699 0.95105652 0.00000000
vn 0.29389263 0.90450850 -0.30901699
vn 0.25000000 0.76942088 -0.58778525
vn 0.18163563 0.55901699 -0.80901699
vn 0.09549150 0.29389263 -0.95105652
vn -0.09549150 0.29389263 0.95105652
vn -0.18163563 0.55901699 0.80901699
vn -0.25000000 0.76942088 0.58778525
vn -0.29389263 0.90450850 0.30901699
vn -0.30901699 0.95105652 0.00000000
vn -0.29389263 0.90450850 -0.30901699
vn -0.25000000 0.76942088 -0.58778525
vn -0.18163563 0.55901699 -0.80901699
vn -0.09549150 0.29389263 -0.95105652
vn -0.25000000 0.18163563 0.95105652
vn -0.47552826 0.34549150 0.80901699
vn -0.65450850 0.47552826 0.58778525
vn -0.76942088 0.55901699 0.30901699
vn -0.80901699 0.58778525 0.00000000
vn -0.76942088 0.55901699 -0.30901699
vn -0.65450850 0.47552826 -0.58778525
vn -0.47552826 0.34549150 -0.80901699
vn -0.25000000 0.18163563 -0.95105652
vn -0.30901699 0.00000000 0.95105652
vn -0.58778525 0.00000000 0.80901699
vn -0.80901699 0.00000000 0.58778525
vn -0.95105652 0.00000000 0.30901699
vn -1.00000000 0.00000000 0.00000000
vn -0.95105652 0.00000000 -0.30901699
vn -0.80901699 0.00000000 -0.58778525
vn -0.58778525 0.00000000 -0.80901699
vn -0.30901699 0.00000000 -0.95105652
vn -0.25000000 -0.18163563 0.95105652
vn -0.47552826 -0.34549150 0.80901699
vn -0.65450850 -0.47552826 0.58778525
vn -0.76942088 -0.55901699 0.30901699
vn -0.80901699 -0.58778525 0.00000000
vn -0.76942088 -0.55901699 -0.30901699
vn -0.65450850 -0.47552826 -0.58778525
vn -0.47552826 -0.34549150 -0.80901699
vn -0.25000000 -0.18163563 -0.95105652
vn -0.09549150 -0.29389263 0.95105652
vn -0.18163563 -0.55901699 0.80901699
vn -0.25000000 -0.76942088 0.58778525
vn -0.29389263 -0.90450850 0.30901699
vn -0.30901699 -0.95105652 0.00000000
vn -0.29389263 -0.90450850 -0.30901699
vn -0.25000000 -0.76942088 -0.58778525
vn -0.18163563 -0.55901699 -0.80901699
vn -0.09549150 -0.29389263 -0.95105652
vn 0.09549150 -0.29389263 0.95105652
vn 0.18163563 -0.55901699 0.80901699
vn 0.25000000 -0.76942088 0.58778525
vn 0.29389263 -0.90450850 0.30901699
vn 0.30901699 -0.95105652 0.00000000
vn 0.29389263 -0.90450850 -0.30901699
vn 0.25000000 -0.76942088 -0.58778525
vn 0.18163563 -0.55901699 -0.80901699
vn 0.09549150 -0.29389263 -0.95105652
vn 0.25000000 -0.18163563 0.95105652
vn 0.47552826 -0.34549150 0.80901699
vn 0.65450850 -0.47552826 0.58778525
vn 0.76942088 -0.55901699 0.30901699
vn 0.80901699 -0.58778525 0.00000000
vn 0.76942088 -0.55901699 -0.30901699
vn 0.65450850 -0.47552826 -0.58778525
vn 0.47552826 -0.34549150 -0.80901699
vn 0.25000000 -0.18163563 -0.95105652
f 2//2 12//12 1//1
f 2//2 3//3 12//12
f 13//13 12//12 3//3
f 4//4 14//14 3//3
f 13//13 3//3 14//14
f 4//4 5//5 14//14
f 15//15 14//14 5//5
f 6//6 16//16 5//5
f 15//15 5//5 16//16
f 6//6 7//7 16//16
f 17//17 16//16 7//7
f 8//8 18//18 7//7
f 17//17 7//7 18//18
f 8//8 9//9 18//18
f 19//19 18//18 9//9
f 10//10 20//20 9//9
f 19//19 9//9 20//20
f 10//10 11//11 20//20
f 21//21 1//1 12//12
f 13//13 22//22 12//12
f 21//21 12//12 22//22
f 13//13 14//14 22//22
f 23//23 22//22 14//14
f 15//15 24//24 14//14
f 23//23 14//14 24//24
f 15//15 16//16 24//24
f 25//25 24//24 16//16
f 17//17 26//26 16//16
f 25//25 16//16 26//26
f 17//17 18//18 26//26
f 27//27 26//26 18//18
f 19//19 28//28 18//18
f 27//27 18//18 28//28
f 19//19 20//20 28//28
f 29//29 28//28 20//20
f 29//29 20//20 11//11
f 21//21 30//30 1//1
f 21//21 22//22 30//30
f 31//31 30//30 22//22
f 23//23 32//32 22//22
f 31//31 22//22 32//32
f 23//23 24//24 32//32
f 33//33 32//32 24//24
f 25//25 34//34 24//24
f 33//33 24//24 34//34
f 25//25 26//26 34//34
f 35//35 34//34 26//26
f 27//27 36//36 26//26
f 35//35 26//26 36//36
f 27//27 28//28 36//36
f 37//37 36//36 28//28
f 29//29 38//38 28//28
f 37//37 28//28 38//38
f 29//29 11//11 38//38
f 39//39 1//1 30//30
f 31//31 40//40 30//30
f 39//39 30//30 40//40
f 31//31 32//32 40//40
f 41//41 40//40 32//32
f 33//33 42//42 32//32
f 41//41 32//32 42//42
f 33//33 34//34 42//42
f 43//43 42//42 34//34
f 35//35 44//44 34//34
f 43//43 34//34 44//44
f 35//35 36//36 44//44
f 45//45 44//44 36//36
f 37//37 46//46 36//36
f 45//45 36//36 46//46
f 37//37 38//38 46//46
f 47//47 46//46 38//38
f 47//47 38//38 11//11
f 39//39 48//48 1//1
f 39//39 40//40 48//48
f 49//49 48//48 40//40
f 41//41 50//50 40//40
f 49//49 40//40 50//50
f 41//41 42//42 50//50
f 51//51 50//50 42//42
f 43//43 52//52 42//42
f 51//51 42//42 52//52
f 43//43 44//44 52//52
f 53//53 52//52 44//44
f 45//45 54//54 44//44
f 53//53 44//44 54//54
f 45//45 46//46 54//54
f 55//55 54//54 46//46
f 47//47 56//56 46//46
f 55//55 46//46 56//56
f 47//47 11//11 56//56
f 57//57 1//1 48//48
f 49//49 58//58 48//48
f 57//57 48//48 58//58
f 49//49 50//50 58//58
f 59//59 58//58 50//50
f 51//51 60//60 50//50
f 59//59 50//50 60//60
f 51//51 52//52 60//60
f 61//61 60//60 52//52
f 53//53 62//62 52//52
f 61//61 52//52 62//62
f 53//53 54//54 62//62
f 63//63 62//62 54//54
f 55//55 64//64 54//54
f 63//63 54//54 64//64
f 55//55 56//56 64//64
f 65//65 64//64 56//56
f 65//65 56//56 11//11
f 57//57 66//66 1//1
f 57//57 58//58 66//66
f 67//67 66//66 58//58
f 59//59 68//68 58//58
f 67//67 58//58 68//68
f 59//59 60//60 68//68
f 69//69 68//68 60//60
f 61//61 70//70 60//60
f 69//69 60//60 70//70
f 61//61 62//62 70//70
f 71//71 70//70 62//62
f 63//63 72//72 62//62
f 71//71 62//62 72//72
f 63//63 64//64 72//72
f 73//73 72//72 64//64
f 65//65 74//74 64//64
f 73//73 64//64 74//74
f 65//65 11//11 74//74
f 75//75 1//1 66//66
f 67//67 76//76 66//66
f 75//75 66//66 76//76
f 67//67 68//68 76//76
f 77//77 76//76 68//68
f 69//69 78//78 68//68
f 77//77 68//68 78//78
f 69//69 70//70 78//78
f 79//79 78//78 70//70
f 71//71 80//80 70//70
f 79//79 70//70 80//80
f 71//71 72//72 80//80
f 81//81 80//80 72//72
f 73//73 82//82 72//72
f 81//81 72//72 82//82
f 73//73 74//74 82//82
f 83//83 82//82 74//74
f 83//83 74//74 11//11
f 75//75 84//84 1//1
f 75//75 76//76 84//84
f 85//85 84//84 76//76
f 77//77 86//86 76//76
f 85//85 76//76 86//86
f 77//77 78//78 86//86
f 87//87 86//86 78//78
f 79//79 88//88 78//78
f 87//87 78//78 88//88
f 79//79 80//80 88//88
f 89//89 88//88 80//80
f 81//81 90//90 80//80
f 89//89 80//80 90//90
f 81//81 82//82 90//90
f 91//91 90//90 82//82
f 83//83 92//92 82//82
f 91//91 82//82 92//92
f 83//83 11//11 92//92
f 2//2 1//1 84//84
f 85//85 3//3 84//84
f 2//2 84//84 3//3
f 85//85 86//86 3//3
f 4//4 3//3 86//86
f 87//87 5//5 86//86
f 4//4 86//86 5//5
f 87//87 88//88 5//5
f 6//6 5//5 88//88
f 89//89 7//7 88//88
f 6//6 88//88 7//7
f 89//89 90//90 7//7
f 8//8 7//7 90//90
f 91//91 9//9 90//90
f 8//8 90//90 9//9
f 91//91 92//92 9//9
f 10//10 9//9 92//92
f 10//10 92//92 11//11
