# Generated from SOFA Simulation
mtllib testShellClampedSquare_00000.mtl
g 1_default7
usemtl mat1
v -0.005000 -0.005000 0.000000
v 0.000000 -0.005000 0.000000
v 0.005000 -0.005000 0.000000
v -0.005000 0.000000 0.000000
v 0.000000 0.000000 0.000000
v 0.005000 0.000000 0.000000
v -0.005000 0.005000 0.000000
v 0.000000 0.005000 0.000000
v 0.005000 0.005000 0.000000
vn 0.000000 0.000000 1.000000
vn 0.000000 0.000000 1.000000
vn 0.000000 0.000000 1.000000
vn 0.000000 0.000000 1.000000
vn 0.000000 0.000000 1.000000
vn 0.000000 0.000000 1.000000
vn 0.000000 0.000000 1.000000
vn 0.000000 0.000000 1.000000
vn 0.000000 0.000000 1.000000
f 2//2 5//5 1//1
f 4//4 1//1 5//5
f 2//2 3//3 5//5
f 6//6 5//5 3//3
f 4//4 5//5 7//7
f 8//8 7//7 5//5
f 6//6 9//9 5//5
f 8//8 5//5 9//9
