# Generated from SOFA Simulation
mtllib toCreateSquareObj_00000.mtl
g 1_default8
usemtl mat1
v -5.000000 -5.000000 0.000000
v -2.500000 -5.000000 0.000000
v 0.000000 -5.000000 0.000000
v 2.500000 -5.000000 0.000000
v 5.000000 -5.000000 0.000000
v -5.000000 -2.500000 0.000000
v -2.500000 -2.500000 0.000000
v 0.000000 -2.500000 0.000000
v 2.500000 -2.500000 0.000000
v 5.000000 -2.500000 0.000000
v -5.000000 0.000000 0.000000
v -2.500000 0.000000 0.000000
v 0.000000 0.000000 0.000000
v 2.500000 0.000000 0.000000
v 5.000000 0.000000 0.000000
v -5.000000 2.500000 0.000000
v -2.500000 2.500000 0.000000
v 0.000000 2.500000 0.000000
v 2.500000 2.500000 0.000000
v 5.000000 2.500000 0.000000
v -5.000000 5.000000 0.000000
v -2.500000 5.000000 0.000000
v 0.000000 5.000000 0.000000
v 2.500000 5.000000 0.000000
v 5.000000 5.000000 0.000000
vn 0.000000 0.000000 1.000000
vn 0.000000 0.000000 1.000000
vn 0.000000 0.000000 1.000000
vn 0.000000 0.000000 1.000000
vn 0.000000 0.000000 1.000000
vn 0.000000 0.000000 1.000000
vn 0.000000 0.000000 1.000000
vn 0.000000 0.000000 1.000000
vn 0.000000 0.000000 1.000000
vn 0.000000 0.000000 1.000000
vn 0.000000 0.000000 1.000000
vn 0.000000 0.000000 1.000000
vn 0.000000 0.000000 1.000000
vn 0.000000 0.000000 1.000000
vn 0.000000 0.000000 1.000000
vn 0.000000 0.000000 1.000000
vn 0.000000 0.000000 1.000000
vn 0.000000 0.000000 1.000000
vn 0.000000 0.000000 1.000000
vn 0.000000 0.000000 1.000000
vn 0.000000 0.000000 1.000000
vn 0.000000 0.000000 1.000000
vn 0.000000 0.000000 1.000000
vn 0.000000 0.000000 1.000000
vn 0.000000 0.000000 1.000000
f 2//2 7//7 1//1
f 6//6 1//1 7//7
f 2//2 3//3 7//7
f 8//8 7//7 3//3
f 4//4 9//9 3//3
f 8//8 3//3 9//9
f 4//4 5//5 9//9
f 10//10 9//9 5//5
f 6//6 7//7 11//11
f 12//12 11//11 7//7
f 8//8 13//13 7//7
f 12//12 7//7 13//13
f 8//8 9//9 13//13
f 14//14 13//13 9//9
f 10//10 15//15 9//9
f 14//14 9//9 15//15
f 12//12 17//17 11//11
f 16//16 11//11 17//17
f 12//12 13//13 17//17
f 18//18 17//17 13//13
f 14//14 19//19 13//13
f 18//18 13//13 19//19
f 14//14 15//15 19//19
f 20//20 19//19 15//15
f 16//16 17//17 21//21
f 22//22 21//21 17//17
f 18//18 23//23 17//17
f 22//22 17//17 23//23
f 18//18 19//19 23//23
f 24//24 23//23 19//19
f 20//20 25//25 19//19
f 24//24 19//19 25//25
